<?xml version="1.0" encoding="UTF-8" standalone="no"?>
<!-- Created with Inkscape (http://www.inkscape.org/) -->

<svg
   xmlns:dc="http://purl.org/dc/elements/1.1/"
   xmlns:cc="http://creativecommons.org/ns#"
   xmlns:rdf="http://www.w3.org/1999/02/22-rdf-syntax-ns#"
   xmlns:svg="http://www.w3.org/2000/svg"
   xmlns="http://www.w3.org/2000/svg"
   xmlns:sodipodi="http://sodipodi.sourceforge.net/DTD/sodipodi-0.dtd"
   xmlns:inkscape="http://www.inkscape.org/namespaces/inkscape"
   id="svg3390"
   version="1.1"
   inkscape:version="0.91 r13725"
   width="225"
   height="225"
   viewBox="0 0 225 225"
   sodipodi:docname="arrows.svg"
   inkscape:export-filename="/home/alanpoon/Documents/rustwork/rust-ios-android/cardgame_widgets/assets/images/arrows_but.png"
   inkscape:export-xdpi="267.09"
   inkscape:export-ydpi="267.09">
  <metadata
     id="metadata3396">
    <rdf:RDF>
      <cc:Work
         rdf:about="">
        <dc:format>image/svg+xml</dc:format>
        <dc:type
           rdf:resource="http://purl.org/dc/dcmitype/StillImage" />
        <dc:title />
      </cc:Work>
    </rdf:RDF>
  </metadata>
  <defs
     id="defs3394">
    <filter
       inkscape:collect="always"
       style="color-interpolation-filters:sRGB"
       id="filter4645"
       x="-0.072655267"
       width="1.1453105"
       y="-0.071356447"
       height="1.1427129">
      <feGaussianBlur
         inkscape:collect="always"
         stdDeviation="5.2270264"
         id="feGaussianBlur4647" />
    </filter>
    <filter
       inkscape:collect="always"
       style="color-interpolation-filters:sRGB"
       id="filter4673"
       x="-0.07224782"
       width="1.1444956"
       y="-0.071753874"
       height="1.1435077">
      <feGaussianBlur
         inkscape:collect="always"
         stdDeviation="5.1737175"
         id="feGaussianBlur4675" />
    </filter>
    <filter
       inkscape:collect="always"
       style="color-interpolation-filters:sRGB"
       id="filter4697"
       x="-0.071791261"
       width="1.1435825"
       y="-0.072209957"
       height="1.1444199">
      <feGaussianBlur
         inkscape:collect="always"
         stdDeviation="5.2415295"
         id="feGaussianBlur4699" />
    </filter>
    <filter
       inkscape:collect="always"
       style="color-interpolation-filters:sRGB"
       id="filter4837"
       x="-0.070212497"
       width="1.140425"
       y="-0.068998097"
       height="1.1379962">
      <feGaussianBlur
         inkscape:collect="always"
         stdDeviation="5.0399931"
         id="feGaussianBlur4839" />
    </filter>
  </defs>
  <sodipodi:namedview
     pagecolor="#ffffff"
     bordercolor="#666666"
     borderopacity="1"
     objecttolerance="10"
     gridtolerance="10"
     guidetolerance="10"
     inkscape:pageopacity="0"
     inkscape:pageshadow="2"
     inkscape:window-width="1366"
     inkscape:window-height="704"
     id="namedview3392"
     showgrid="true"
     inkscape:zoom="0.57111111"
     inkscape:cx="178.01367"
     inkscape:cy="-230.40447"
     inkscape:window-x="0"
     inkscape:window-y="27"
     inkscape:window-maximized="1"
     inkscape:current-layer="svg3390">
    <inkscape:grid
       type="xygrid"
       id="grid4413" />
  </sodipodi:namedview>
  <path
     style="fill:#000000"
     d="M 74.368803,222.09343 C 41.06414,212.48037 14.553832,186.00582 4.896387,152.71473 c -3.8257726,-13.18815 -3.8257726,-40.78762 0,-53.97576 9.630258,-33.1974 35.521849,-59.41352 68.308299,-69.1645 5.903602,-1.75578 16.722619,-2.95541 26.653795,-2.95541 28.091539,0 50.425609,9.28963 69.664549,28.97626 12.39876,12.6873 22.82485,32.00701 26.46495,49.04004 3.09598,14.4869 1.43349,40.65553 -3.45372,54.36367 -9.82145,27.54811 -32.56243,50.53732 -60.02123,60.67639 -13.59839,5.02114 -44.651606,6.31255 -58.144227,2.41801 z m 52.533257,-12.22278 c 36.72378,-12.42445 59.86005,-44.98938 59.86005,-84.25462 0,-35.35927 -17.9388,-64.74787 -48.48307,-79.42836 C 116.06587,35.51135 97.718011,33.93659 74.244782,40.69173 38.525675,50.97101 12.76122,85.68841 12.513353,123.87436 c -0.256686,39.5463 22.36731,72.42742 58.792136,85.44691 16.219352,5.79735 39.407531,6.02648 55.596571,0.54938 z m -37.1061,-23.4779 c -8.759461,-4.43069 -12.800478,-13.3165 -12.804008,-28.15485 -0.0023,-9.29328 -0.490724,-11.4545 -2.198304,-9.72552 -1.207502,1.22263 -6.025545,2.22297 -10.706743,2.22297 -11.664843,0 -20.152107,-5.92896 -23.438713,-16.37363 -3.746679,-11.90678 -0.607392,-17.44438 24.448847,-43.127 34.662426,-35.52896 36.990471,-35.6195 70.156121,-2.7285 24.44815,24.24569 27.72481,28.87241 27.72481,39.14825 0,8.83249 -8.02275,20.25717 -15.95648,22.72263 -5.56878,1.73053 -15.83798,0.58112 -20.41873,-2.28543 -1.42921,-0.89437 -2.04536,2.4355 -2.04536,11.05369 0,15.17338 -3.63127,23.62008 -11.85256,27.57024 -7.89547,3.79361 -14.967686,3.69394 -22.90888,-0.32285 z m 26.07109,-7.83505 c 4.65476,-5.22815 5.03125,-6.82714 5.03125,-21.36788 0,-16.61107 1.05952,-18.29049 8.12528,-12.87923 1.95326,1.49589 6.62406,2.7198 10.37954,2.7198 12.67252,0 22.79352,-13.83571 18.99214,-25.96287 -0.69911,-2.23036 -11.8625,-14.80709 -24.80751,-27.94829 l -23.53636,-23.89308 -8.68072,0 -8.680695,0 -24.316379,24.62117 c -22.613201,22.89663 -24.316383,25.11096 -24.316383,31.61398 0,17.50485 15.086653,26.87932 30.352283,18.86015 2.83627,-1.48991 5.490298,-2.37132 5.897843,-1.95865 0.407546,0.41264 0.856788,7.40695 0.998317,15.54289 0.206107,11.84813 1.018504,15.82442 4.081358,19.97626 7.220587,9.78784 22.074086,10.11712 30.480036,0.67575 z m -22.004907,-2.91889 c -3.893724,-2.76145 -4.066183,-4.05903 -4.066183,-30.59392 l 0,-27.71016 -10.332192,11.14287 c -7.553292,8.14593 -11.626376,11.14287 -15.144089,11.14287 -7.606867,0 -12.944267,-4.85244 -12.944267,-11.76812 0,-5.20302 2.967733,-9.00553 22.327973,-28.60843 18.831376,-19.06741 23.200667,-22.60389 27.900635,-22.58261 4.68689,0.0212 9.13506,3.66299 27.98466,22.9113 24.14603,24.65678 26.08474,28.49848 18.17758,36.01997 -6.88973,6.5537 -11.91355,5.15677 -23.61319,-6.5659 l -10.57297,-10.59378 0,26.01697 c 0,24.80002 -0.19804,26.20536 -4.2344,30.04484 -4.99897,4.75515 -9.883024,5.11604 -15.483557,1.1441 z m 14.022827,-6.79353 c 0.82785,-2.26591 1.60829,-15.39538 1.73429,-29.17658 0.12601,-13.78121 0.24546,-25.68196 0.26542,-26.4461 0.0942,-3.60479 5.7455,-0.70159 10.88729,5.59308 3.13698,3.84034 8.56058,9.29067 12.0525,12.11184 5.19368,4.19609 7.01656,4.76761 10.01823,3.14104 7.38766,-4.00332 4.35712,-9.4403 -17.79931,-31.93303 -11.80773,-11.98697 -22.3796,-21.79449 -23.49302,-21.79449 -2.656931,0 -45.431686,43.64784 -46.170383,47.11279 -0.31311,1.46868 1.593355,4.10512 4.236615,5.85874 l 4.8059,3.18841 12.275251,-12.33387 c 6.751396,-6.78363 13.283719,-12.33388 14.516285,-12.33388 1.670681,0 2.241021,7.21329 2.241021,28.34298 0,19.57455 0.679204,29.03068 2.195461,30.56594 3.682314,3.72848 10.56939,2.66068 12.23445,-1.89687 z"
     id="path4313"
     inkscape:connector-curvature="0"
     sodipodi:nodetypes="sssssssssssssssssssssssssssssssssssscccssssssssscsssssssscssssssssssssscsssss"
     inkscape:export-xdpi="89.809998"
     inkscape:export-ydpi="89.809998" />
  <path
     style="fill:#000000"
     d="m 204.57085,100.88778 c 9.40961,-33.362313 35.32379,-59.918511 67.91023,-69.592677 12.90899,-3.83239 39.92429,-3.83239 52.83328,0 32.49473,9.646931 58.15596,35.58334 67.70056,68.426534 1.71861,5.913823 2.89285,16.751563 2.89285,26.699933 0,28.14015 -9.09301,50.51288 -28.36294,69.78512 -12.41877,12.42024 -31.32955,22.86437 -48.00202,26.51079 -14.18028,3.10132 -39.79501,1.43594 -53.213,-3.45972 -26.96502,-9.83845 -49.46765,-32.6188 -59.39209,-60.12513 -4.91487,-13.62192 -6.17895,-44.72887 -2.36687,-58.24485 z m 11.96408,52.62417 c 12.16149,36.78735 44.03714,59.96368 82.47128,59.96368 34.61083,0 63.37738,-17.96987 77.74713,-48.567 10.45035,-22.25163 11.99176,-40.63124 5.37961,-64.14508 C 372.07125,64.982605 338.0887,39.173558 300.711,38.925258 c -38.70923,-0.257133 -70.89437,22.406019 -83.63831,58.8939 -5.67464,16.247432 -5.8989,39.475732 -0.53776,55.692792 z m 22.98097,-37.17031 c 4.33692,-8.77463 13.03464,-12.82265 27.55893,-12.82618 9.09656,-0.002 11.21203,-0.49157 9.51966,-2.20211 -1.19677,-1.20959 -2.17592,-6.035978 -2.17592,-10.725278 0,-11.685031 5.80347,-20.186985 16.02706,-23.479278 11.65473,-3.753162 17.07514,-0.608441 42.21414,24.491159 34.77694,34.722437 34.86558,37.054507 2.67075,70.277557 -23.7325,24.49046 -28.26127,27.77279 -38.31962,27.77279 -8.64554,0 -19.82839,-8.03662 -22.24168,-15.98409 -1.69388,-5.57841 -0.56881,-15.86541 2.23707,-20.45408 0.87544,-1.43168 -2.38395,-2.04888 -10.81973,-2.04888 -14.85221,0 -23.12012,-3.63756 -26.98668,-11.87307 -3.71331,-7.90915 -3.61574,-14.99361 0.31602,-22.94854 z m 7.66921,26.1162 c 5.1175,4.66281 6.68263,5.03998 20.91562,5.03998 16.25947,0 17.90332,1.06133 12.6066,8.13933 -1.46422,1.95664 -2.66222,6.63552 -2.66222,10.39749 0,12.69447 13.54285,22.83298 25.41334,19.02504 2.18313,-0.70034 14.49368,-11.88305 27.35671,-24.85045 l 23.38735,-23.57712 0,-8.69573 0,-8.69572 -24.10004,-24.358469 C 307.69049,72.229844 305.52302,70.523712 299.15765,70.523712 c -17.13434,0 -26.31037,15.112768 -18.46092,30.404828 1.45837,2.84116 2.32109,5.49981 1.91718,5.90805 -0.40393,0.40825 -7.25018,0.85827 -15.21391,1.00005 -11.59735,0.20645 -15.48947,1.02025 -19.55343,4.08842 -9.58067,7.23308 -9.90299,22.11227 -0.66146,30.53278 z m 2.85712,-22.043 c 2.70298,-3.90045 3.97311,-4.0732 29.94635,-4.0732 l 27.12365,0 -10.90703,-10.35009 c -7.97352,-7.566348 -10.907,-11.646497 -10.907,-15.170294 0,-7.620041 4.74972,-12.966676 11.51904,-12.966676 5.09285,0 8.81488,2.972866 28.00286,22.36662 18.66382,18.86397 22.12546,23.24082 22.10463,27.94893 -0.0209,4.695 -3.58547,9.15086 -22.42635,28.03308 -24.1349,24.18782 -27.89526,26.1299 -35.25757,18.20906 -6.41498,-6.90166 -5.04762,-11.93417 6.42692,-23.65405 l 10.36957,-10.59127 -25.46629,0 c -24.27509,0 -25.65068,-0.19841 -29.40889,-4.24173 -4.6545,-5.00763 -5.00776,-9.90014 -1.11989,-15.51038 z m 6.64971,14.04712 c 2.21797,0.82928 15.06954,1.61105 28.55905,1.73729 13.48952,0.12626 25.13834,0.24587 25.88633,0.26589 3.52849,0.0943 0.68672,5.75542 -5.4747,10.9061 -3.75907,3.14242 -9.09403,8.57541 -11.85548,12.07336 -4.10728,5.20268 -4.66673,7.02871 -3.07453,10.03557 3.91854,7.40045 9.24045,4.36467 31.2571,-17.8301 11.73324,-11.82816 21.33319,-22.41834 21.33319,-23.5337 0,-2.66152 -42.72398,-45.510304 -46.1156,-46.250282 -1.43758,-0.313654 -4.01822,1.596107 -5.73473,4.243952 l -3.12092,4.814214 12.0728,12.296506 c 6.64003,6.76307 12.07283,13.30671 12.07283,14.5414 0,1.67358 -7.06064,2.24491 -27.74305,2.24491 -19.16026,0 -28.41622,0.68038 -29.91898,2.19925 -3.64959,3.6887 -2.60437,10.58769 1.85669,12.25564 z"
     id="path4313-9"
     inkscape:connector-curvature="0"
     sodipodi:nodetypes="sssssssssssssssssssssssssssssssssssscccssssssssscsssssssscssssssssssssscsssss"
     inkscape:export-xdpi="89.809998"
     inkscape:export-ydpi="89.809998" />
  <path
     style="fill:#000000"
     d="m 198.18589,350.46906 c -9.60819,33.59881 -36.06924,60.34323 -69.34338,70.08598 -13.18142,3.85954 -40.76682,3.85954 -53.94824,0 -33.18048,-9.71531 -59.38325,-35.83556 -69.1292895,-68.91156 -1.75487,-5.95576 -2.95389,-16.8703 -2.95389,-26.8892 0,-28.33961 9.2848895,-50.87091 28.9615095,-70.27974 12.68084,-12.5083 31.99072,-23.02645 49.01504,-26.6987 14.47953,-3.12332 40.63481,-1.44613 54.33597,3.48423 27.53407,9.9082 50.51157,32.85 60.64546,60.55129 5.0186,13.71849 6.30934,45.04593 2.41682,58.6577 z m -12.21658,-52.99718 c -12.41812,-37.0481 -44.96645,-60.38869 -84.21168,-60.38869 -35.34124,0 -64.71488,18.09723 -79.38789,48.91124 -10.67087,22.40936 -12.24485,40.91924 -5.49315,64.59976 10.27404,36.03455 44.97375,62.02654 83.14024,62.27659 39.52616,0.25896 72.39052,-22.56483 85.40337,-59.31133 5.7944,-16.36261 6.02342,-39.75556 0.54911,-56.08757 z m -23.46593,37.4338 c -4.42843,8.83682 -13.30973,12.91353 -28.14051,12.91708 -9.28854,0.002 -11.44867,0.49506 -9.72058,2.21771 1.22202,1.21818 2.22185,6.07876 2.22185,10.80132 0,11.76785 -5.92594,20.33006 -16.36528,23.64569 -11.90071,3.77976 -17.43549,0.61277 -43.10503,-24.66476 -35.51083,-34.96853 -35.60135,-37.31716 -2.7271,-70.77571 24.23334,-24.66405 28.85771,-27.96962 39.12831,-27.96962 8.82798,0 20.24684,8.09359 22.71104,16.09738 1.72965,5.61796 0.58082,15.97787 -2.28427,20.59906 -0.8939,1.44182 2.43425,2.0634 11.04806,2.0634 15.16565,0 23.60805,3.66335 27.55619,11.95724 3.79168,7.96519 3.69206,15.09988 -0.32268,23.11121 z m -7.83106,-26.30133 c -5.22549,-4.69587 -6.82366,-5.0757 -21.35699,-5.0757 -16.60262,0 -18.28117,-1.06886 -12.87267,-8.19702 1.49513,-1.97051 2.71841,-6.68254 2.71841,-10.47119 0,-12.78444 -13.82866,-22.99483 -25.94964,-19.15991 -2.22921,0.70533 -14.79954,11.96728 -27.93405,25.0266 l -23.88092,23.74425 0,8.75736 0,8.75736 24.60866,24.53114 c 22.88495,22.81289 25.09815,24.53111 31.59787,24.53111 17.49591,0 26.8656,-15.21988 18.85052,-30.62033 -1.48916,-2.8613 -2.3701,-5.53877 -1.95765,-5.94993 0.41245,-0.41114 7.40317,-0.86435 15.53497,-1.00714 11.84209,-0.20792 15.81636,-1.02748 19.96608,-4.11739 9.78285,-7.28435 10.11197,-22.26902 0.67541,-30.74921 z m -2.9174,22.19923 c -2.76005,3.92812 -4.05698,4.1021 -30.57833,4.1021 l -27.69604,0 11.13718,10.42345 c 8.14178,7.61999 11.13718,11.72905 11.13718,15.27782 0,7.67405 -4.84996,13.05857 -11.76211,13.05857 -5.20036,0 -9.00093,-2.99392 -28.59385,-22.52515 -19.05768,-18.99769 -22.59234,-23.40556 -22.57109,-28.14702 0.0213,-4.7283 3.66113,-9.21575 22.89961,-28.2318 24.64422,-24.35926 28.48395,-26.31512 36.00162,-18.33812 6.55036,6.95059 5.15415,12.01877 -6.56255,23.82171 l -10.58837,10.66634 26.00368,0 c 24.7874,0 26.19203,0.19982 30.02954,4.27179 4.75274,5.04311 5.11343,9.97032 1.14353,15.62031 z m -6.79007,-14.14668 c -2.26476,-0.83515 -15.38754,-1.62246 -29.16173,-1.74959 -13.77417,-0.12714 -25.66885,-0.24763 -26.43261,-0.26778 -3.60296,-0.095 -0.70123,-5.79622 5.59022,-10.98342 3.83839,-3.16467 9.28595,-8.6362 12.10567,-12.15893 4.19396,-5.23954 4.7652,-7.07853 3.13943,-10.10669 -4.00126,-7.45291 -9.43547,-4.39561 -31.91674,17.95646 -11.98085,11.91201 -21.7834,22.57726 -21.7834,23.70053 0,2.68038 43.62561,45.8329 47.0888,46.57811 1.46792,0.31587 4.10302,-1.60742 5.85575,-4.27403 l 3.1868,-4.84833 -12.32759,-12.38367 c -6.78017,-6.811 -12.3276,-13.40103 -12.3276,-14.64446 0,-1.68546 7.20962,-2.26084 28.32853,-2.26084 19.56459,0 29.01589,-0.68519 30.55037,-2.21485 3.72657,-3.71484 2.65933,-10.66273 -1.8959,-12.34251 z"
     id="path4313-9-4"
     inkscape:connector-curvature="0"
     sodipodi:nodetypes="sssssssssssssssssssssssssssssssssssscccssssssssscsssssssscssssssssssssscsssss"
     inkscape:export-xdpi="89.809998"
     inkscape:export-ydpi="89.809998" />
  <path
     style="fill:#000000"
     d="m 326.22314,227.40116 c 33.30469,9.58299 59.81499,35.97465 69.47244,69.16153 3.82577,13.14685 3.82577,40.65994 0,53.80679 -9.63027,33.09348 -35.52185,59.22753 -68.30831,68.94799 -5.90361,1.75027 -16.72262,2.94615 -26.65379,2.94615 -28.09154,0 -50.42562,-9.26056 -69.66454,-28.88555 -12.39879,-12.64758 -22.82485,-31.90682 -26.46496,-48.88651 -3.09597,-14.44156 -1.43347,-40.52826 3.45374,-54.19349 9.82142,-27.46187 32.56241,-50.37912 60.0212,-60.48643 13.5984,-5.00544 44.65161,-6.2928 58.14422,-2.41048 z m -52.53323,12.18454 c -36.7238,12.38556 -59.86006,44.84854 -59.86006,83.99087 0,35.24857 17.93881,64.54516 48.48306,79.17969 22.21317,10.6429 40.56104,12.21273 64.03426,5.47874 35.71912,-10.24711 61.48357,-44.85581 61.73144,-82.92222 0.25668,-39.4225 -22.36731,-72.20068 -58.79213,-85.17941 -16.21937,-5.7792 -39.40754,-6.00762 -55.59657,-0.54767 z m 37.10609,23.4044 c 8.75946,4.41683 12.80049,13.27482 12.80401,28.06672 0.002,9.26418 0.49073,11.41864 2.1983,9.69508 1.20751,-1.21881 6.02555,-2.21602 10.70675,-2.21602 11.66484,0 20.15211,5.9104 23.43871,16.32237 3.74668,11.86949 0.60739,17.38976 -24.44884,42.99199 -34.66244,35.41774 -36.99049,35.508 -70.15613,2.71996 -24.44815,-24.16979 -27.72481,-28.78203 -27.72481,-39.0257 0,-8.80484 8.02274,-20.19376 15.95648,-22.65149 5.56877,-1.72512 15.838,-0.57931 20.41873,2.27827 1.42921,0.89157 2.04534,-2.42787 2.04534,-11.01908 0,-15.12588 3.63128,-23.54614 11.85257,-27.48394 7.89546,-3.78173 14.96769,-3.68238 22.90889,0.32184 z m -26.07109,7.81053 c -4.65477,5.21178 -5.03126,6.80576 -5.03126,21.30098 0,16.55908 -1.05952,18.23323 -8.12527,12.83892 -1.95327,-1.49122 -6.62405,-2.71129 -10.37953,-2.71129 -12.67253,0 -22.79353,13.7924 -18.99216,25.88159 0.69912,2.22337 11.86251,14.76075 24.8075,27.8608 l 23.53638,23.8183 8.68071,0 8.68069,0 24.31639,-24.5441 c 22.6132,-22.82497 24.31638,-25.03236 24.31638,-31.51503 0,-17.45004 -15.08664,-26.79516 -30.35229,-18.80109 -2.83625,1.48524 -5.49029,2.36388 -5.89784,1.95252 -0.40753,-0.41138 -0.85678,-7.38377 -0.99831,-15.49425 -0.2061,-11.81103 -1.0185,-15.77488 -4.08136,-19.91372 -7.22058,-9.75719 -22.07407,-10.08545 -30.48003,-0.67363 z m 22.00491,2.90975 c 3.89372,2.7528 4.06618,4.04633 4.06618,30.49814 l 0,27.62342 10.3322,-11.10799 c 7.55327,-8.12043 11.62636,-11.10798 15.14408,-11.10798 7.60687,0 12.94427,4.83724 12.94427,11.73128 0,5.18672 -2.96773,8.97734 -22.32798,28.51886 -18.83138,19.00772 -23.20067,22.53313 -27.90064,22.51191 -4.68688,-0.0212 -9.13504,-3.65152 -27.98465,-22.83957 -24.14602,-24.57958 -26.08474,-28.40926 -18.17759,-35.90721 6.88974,-6.53318 11.91356,-5.14063 23.61318,6.54534 l 10.57298,10.56062 0,-25.93551 c 0,-24.72238 0.19807,-26.12333 4.2344,-29.95079 4.99897,-4.74026 9.88303,-5.10002 15.48357,-1.14052 z m -14.02284,6.77225 c -0.82785,2.25884 -1.60827,15.3472 -1.73428,29.08526 -0.12607,13.73806 -0.24546,25.60156 -0.26544,26.36332 -0.0941,3.59349 -5.74548,0.69937 -10.88727,-5.57559 -3.13698,-3.82832 -8.56059,-9.26159 -12.05249,-12.07392 -5.19368,-4.18295 -7.01656,-4.7527 -10.01823,-3.1312 -7.38766,3.99078 -4.35713,9.41074 17.79929,31.83306 11.80773,11.94945 22.37961,21.72626 23.49304,21.72626 2.65692,0 45.43168,-43.5112 46.17037,-46.96531 0.31311,-1.46407 -1.59335,-4.09225 -4.23662,-5.84039 l -4.80589,-3.17844 -12.27525,12.29527 c -6.75139,6.76239 -13.28374,12.29527 -14.51628,12.29527 -1.6707,0 -2.24103,-7.19073 -2.24103,-28.25425 0,-19.51329 -0.67921,-28.9398 -2.19547,-30.47026 -3.68231,-3.7168 -10.56937,-2.65236 -12.23445,1.89092 z"
     id="path4313-9-4-4"
     inkscape:connector-curvature="0"
     sodipodi:nodetypes="sssssssssssssssssssssssssssssssssssscccssssssssscsssssssscssssssssssssscsssss"
     inkscape:export-xdpi="89.809998"
     inkscape:export-ydpi="89.809998" />
  <path
     style="opacity:1;fill:#ccff00;fill-opacity:1"
     d="M 88.42877,212.8474 C 68.865795,210.37548 50.7647,200.99596 36.686799,186.03604 23.226813,171.73277 15.563373,154.42592 13.404607,133.45634 11.699265,116.8912 14.3781,102.20561 21.972519,86.48638 27.031745,76.01458 32.04883,69.05759 40.184325,61.2328 50.999747,50.83044 62.11102,44.60564 77.76534,40.17902 c 10.154276,-2.87136 27.66156,-3.60219 37.57396,-1.5685 17.1984,3.52852 34.83998,13.05169 46.76517,25.24447 35.73596,36.53783 31.31538,100.68485 -9.06143,131.49104 -11.70067,8.92724 -26.44163,15.30627 -39.67796,17.17035 -5.85544,0.82464 -19.587305,1.00692 -24.93631,0.33102 z m 23.46066,-25.40797 c 8.7854,-3.82675 12.02543,-10.74419 12.95505,-27.65894 0.31635,-5.75627 0.75535,-10.64837 0.97555,-10.87134 0.22019,-0.22296 1.89018,0.12687 3.71108,0.77736 10.09134,3.60506 19.01004,2.13744 25.21966,-4.15001 5.73642,-5.80832 8.16102,-11.43314 8.15125,-18.91001 -0.0118,-9.03167 -1.9601,-12.06572 -19.21301,-29.92035 -25.03827,-25.91152 -33.6326,-32.53739 -42.15794,-32.50202 -8.546839,0.0355 -15.210516,4.88426 -36.1457,26.30125 -20.987269,21.47029 -26.210296,28.66302 -26.210296,36.09472 0,9.37169 4.899301,17.82862 12.513828,21.60075 5.612966,2.78059 15.549884,3.60598 20.859411,1.73266 3.20459,-1.13065 3.358914,-1.10914 3.793212,0.52905 0.248992,0.9392 0.457637,4.82395 0.46365,8.63275 0.01936,12.17174 3.570122,21.55286 9.717167,25.67176 8.022222,5.37541 16.992088,6.32036 25.367088,2.67237 z"
     id="path4379"
     inkscape:connector-curvature="0"
     inkscape:export-xdpi="89.809998"
     inkscape:export-ydpi="89.809998" />
  <path
     style="opacity:1;fill:#6c6753;fill-opacity:1"
     d="m 98.260629,171.91307 c -1.529773,-0.5662 -2.43907,-1.6975 -3.044512,-3.78781 -0.474802,-1.63927 -1.038041,-12.83306 -1.251639,-24.87509 -0.563398,-31.76267 -0.829318,-33.48027 -4.777902,-30.86063 -1.200073,0.79618 -7.182952,6.3322 -13.295286,12.30228 -6.112331,5.97008 -11.414015,10.85469 -11.781514,10.85469 -1.419712,0 -7.206399,-4.86178 -7.713959,-6.481 -0.372001,-1.18677 0.134436,-2.61789 1.665881,-4.70755 3.787781,-5.16842 41.696389,-43.14251 43.068122,-43.14251 1.87545,0 11.79898,9.12749 26.54675,24.41728 13.50712,14.00352 18.01463,19.86849 18.01463,23.43984 0,2.47527 -1.86558,4.48896 -4.85938,5.24518 -2.75698,0.69641 -9.94636,-4.76916 -17.67846,-13.43965 -3.15821,-3.54153 -6.9566,-7.19908 -8.44086,-8.12789 -4.66273,-2.91786 -5.05792,-2.14028 -5.08161,9.999 -0.0346,17.68502 -1.43085,44.01347 -2.45492,46.28924 -0.52159,1.15909 -2.03361,2.49052 -3.36007,2.9587 -2.7766,0.98008 -2.67602,0.9816 -5.555271,-0.0841 z"
     id="path4383"
     inkscape:connector-curvature="0"
     inkscape:export-xdpi="89.809998"
     inkscape:export-ydpi="89.809998" />
  <path
     style="opacity:1;fill:#e3dedb;fill-opacity:1"
     d="m 94.942786,184.21892 c -4.464417,-1.43689 -8.447811,-4.98547 -10.602879,-9.44548 -1.914395,-3.96192 -2.15916,-5.59802 -2.720376,-18.18402 -0.339189,-7.6067 -0.851686,-14.0683 -1.138886,-14.3591 -0.287194,-0.29079 -1.679697,-0.0576 -3.094448,0.51818 -12.406129,5.0492 -17.075764,5.27304 -23.685459,1.13536 -5.491884,-3.43793 -8.268035,-8.52021 -8.742413,-16.00467 -0.346617,-5.46872 -0.180612,-6.3751 1.791431,-9.78235 1.195394,-2.06535 11.920719,-13.76295 23.834059,-25.99467 l 21.660616,-22.23948 8.967299,0 8.96729,0 18.76854,19.25915 c 18.81297,19.30471 26.94238,28.2647 28.64554,31.57223 1.14575,2.22505 1.18355,9.14849 0.0665,12.16419 -4.61659,12.46257 -19.01432,17.54828 -29.41692,10.39094 -3.64849,-2.5103 -5.61753,-2.57159 -6.48172,-0.20175 -0.36594,1.00351 -0.90342,7.59766 -1.19438,14.65367 -0.32387,7.8541 -0.95523,13.86198 -1.62809,15.49255 -1.43114,3.46813 -5.8301,7.87922 -9.76431,9.79124 -3.52835,1.71476 -10.783142,2.34384 -14.231324,1.23402 l -3.2e-5,0 z m 13.245334,-8.36511 c 2.04968,-1.57956 3.85657,-3.81627 4.42186,-5.47366 0.65312,-1.91494 0.97021,-10.47831 1.00109,-27.03628 l 0.0452,-24.23364 9.01559,8.84322 c 12.52927,12.28974 17.05399,14.08452 23.53099,9.3338 6.56435,-4.8148 7.53105,-9.4637 3.3261,-15.99539 -3.09462,-4.80699 -34.6366,-37.37407 -40.2571,-41.56545 -5.27093,-3.93069 -9.727416,-4.09527 -14.905013,-0.55043 -5.427286,3.7158 -38.603693,37.59707 -41.141049,42.01514 -5.156517,8.97858 0.167304,18.40994 10.392059,18.40994 4.950087,0 8.580438,-2.60827 18.312609,-13.15695 l 7.687255,-8.33219 0.01068,25.13825 c 0.0061,14.75474 0.352025,26.38283 0.837115,28.15135 0.616929,2.2492 1.681783,3.53219 4.200115,5.06053 4.898068,2.97256 9.122545,2.78255 13.522525,-0.60824 z"
     id="path4387"
     inkscape:connector-curvature="0"
     inkscape:export-xdpi="89.809998"
     inkscape:export-ydpi="89.809998" />
  <path
     style="opacity:1;fill:#e3dedb;fill-opacity:1"
     d="m 292.29741,184.40619 c -7.99007,-2.4895 -13.6157,-10.21623 -13.57583,-18.6462 0.0238,-5.06196 0.86687,-7.98239 3.30121,-11.43775 1.93915,-2.75251 2.01232,-5.22067 0.17877,-6.02661 -0.76401,-0.33579 -7.51433,-0.84375 -15.00076,-1.12879 -13.06806,-0.49759 -13.74194,-0.60542 -16.87324,-2.69983 -12.79482,-8.558 -12.42776,-27.1451 0.66832,-33.84362 2.87477,-1.47041 13.98987,-2.7075 24.8806,-2.76916 4.64174,-0.0262 6.28625,-0.32423 6.61843,-1.19909 0.24306,-0.64027 -0.55225,-3.61865 -1.76744,-6.61865 -5.3226,-13.14044 -0.68807,-24.427932 11.51138,-28.036188 6.06576,-1.794062 11.02338,-1.137813 15.28776,2.023674 1.89656,1.406046 13.00301,12.18846 24.681,23.96091 l 21.23273,21.404464 0,8.99341 0,8.99344 -19.64523,19.24722 c -31.2886,30.65463 -31.60356,30.86549 -41.49766,27.78277 z m 11.93055,-9.03672 c 5.85894,-3.98374 37.35038,-35.63833 40.42157,-40.63102 3.24867,-5.28126 3.2279,-8.72899 -0.0808,-13.36097 -6.99591,-9.79443 -36.92358,-39.449581 -42.94602,-42.55494 -7.96646,-4.107787 -16.4449,1.846194 -16.4449,11.548453 0,4.577232 2.0222,7.416105 12.51879,17.574447 l 8.00559,7.74764 -25.57778,0.27496 c -28.71314,0.30865 -28.40825,0.24785 -31.44877,6.27165 -2.08824,4.13721 -2.02411,7.97458 0.18826,11.26002 4.43869,6.59173 6.69643,7.04785 35.36428,7.14448 l 20.08468,0.0677 -8.48684,9.39397 c -8.47485,9.38071 -10.64817,12.78792 -10.64817,16.69352 0,5.84377 7.60108,12.99368 12.69996,11.94611 1.0914,-0.22422 3.94886,-1.74343 6.34999,-3.37602 z"
     id="path4389"
     inkscape:connector-curvature="0"
     inkscape:export-xdpi="89.809998"
     inkscape:export-ydpi="89.809998" />
  <path
     style="opacity:1;fill:#e3dedb;fill-opacity:1"
     d="m 108.64187,266.37753 c 8.1587,2.50713 13.90305,10.28863 13.86232,18.77836 -0.0244,5.09784 -0.88515,8.03898 -3.37085,11.51883 -1.98007,2.77202 -2.0548,5.25767 -0.18242,6.06932 0.78011,0.33818 7.67289,0.84972 15.31732,1.13681 13.2612,0.49798 14.04844,0.62056 17.1575,2.67157 13.18664,8.69902 12.85318,27.33884 -0.6106,34.1309 -2.93543,1.48083 -14.28511,2.72668 -25.40567,2.78878 -4.8478,0.0272 -6.41521,0.31686 -6.77545,1.25268 -0.25776,0.66958 0.57432,3.66372 1.84906,6.65362 4.21579,9.88812 2.66103,18.61539 -4.34538,24.39181 -5.54166,4.56882 -14.6762,6.15769 -20.366109,3.54251 -1.72879,-0.79458 -12.64801,-10.93883 -26.26106,-24.39723 l -23.3018,-23.03712 0,-9.067 0,-9.067 20.05981,-19.37873 c 31.99427,-30.90793 32.27289,-31.09195 42.373349,-27.98811 z m -12.182289,9.10077 c -5.9826,4.01197 -38.13862,35.89093 -41.27464,40.91902 -4.65692,7.46663 -3.50594,10.3054 10.05406,24.79741 14.71278,15.72403 30.58814,30.21627 34.897049,31.85668 8.24473,3.13879 15.77549,-2.57636 15.77549,-11.97214 0,-4.60967 -2.06489,-7.46868 -12.78298,-17.69901 l -8.174549,-7.80258 26.224919,-0.27688 c 24.86521,-0.26255 26.33925,-0.36203 28.43013,-1.91881 5.10278,-3.79928 6.64257,-10.9626 3.38277,-15.73715 -4.53283,-6.63915 -6.83602,-7.09783 -36.12847,-7.19512 l -20.526379,-0.068 7.372889,-7.94564 c 11.40534,-12.29125 13.20472,-15.43064 11.87391,-20.71634 -0.6889,-2.73614 -5.18042,-7.69203 -8.16741,-9.01185 -3.23026,-1.42729 -5.58476,-0.83192 -10.956789,2.77057 z"
     id="path4391"
     inkscape:connector-curvature="0"
     inkscape:export-xdpi="89.809998"
     inkscape:export-ydpi="89.809998" />
  <path
     style="opacity:1;fill:#e3dedb;fill-opacity:1"
     d="m 268.40446,356.46484 c -12.06036,-12.51081 -22.96223,-24.3477 -24.22641,-26.30417 -3.93608,-6.09163 -2.53701,-14.92269 3.33109,-21.02598 4.66724,-4.85432 7.50323,-6.09091 13.99183,-6.10101 4.92748,-0.007 6.20679,0.33225 10.56835,2.80798 3.92051,2.22538 5.16906,2.6086 5.94747,1.82544 1.39917,-1.40774 2.17853,-8.01457 2.24623,-19.04194 0.0668,-10.8734 0.81797,-13.41864 5.29402,-17.93661 4.09606,-4.13443 8.57514,-6.04717 14.21134,-6.06877 5.29509,-0.0204 8.61959,1.17059 12.5097,4.48119 4.77152,4.0607 5.81935,7.81799 6.61188,23.70868 0.38753,7.7703 0.87143,14.29621 1.07534,14.50202 0.2039,0.20582 3.24218,-0.77112 6.75176,-2.17096 10.50127,-4.18859 18.23358,-3.08138 23.88962,3.42083 3.18181,3.6578 4.63666,7.04419 5.38462,12.53344 1.02048,7.48923 -0.82827,10.048 -25.75097,35.64075 l -22.0621,22.65523 -8.92292,-0.0896 -8.92292,-0.0896 -21.92793,-22.74692 z m 38.12304,13.12947 c 5.37819,-3.69677 37.13361,-35.87061 40.16306,-40.69228 5.52187,-8.78862 1.91146,-17.55394 -8.00377,-19.43147 -4.85204,-0.91875 -8.32659,1.27024 -18.12144,11.41663 l -9.00982,9.33319 -0.0647,-11.58939 c -0.0355,-6.37417 -0.31525,-18.38231 -0.6215,-26.68476 -0.49511,-13.42264 -0.73177,-15.29052 -2.13583,-16.8565 -6.89862,-7.69426 -18.85291,-4.23461 -21.23824,6.1465 -0.40074,1.744 -0.7372,13.29577 -0.74773,25.67053 l -0.0191,22.49962 -8.60939,-8.18801 c -4.98363,-4.73972 -10.36372,-9.05537 -12.77507,-10.24757 -3.70592,-1.83224 -4.4816,-1.95433 -7.02797,-1.10607 -3.58371,1.19381 -7.30633,4.31107 -8.92781,7.47604 -2.88776,5.63658 0.60575,11.05342 20.1457,31.2368 13.34233,13.78166 22.40265,21.95088 26.05921,23.4963 2.98679,1.26232 6.7232,0.41503 10.93436,-2.47956 z"
     id="path4393"
     inkscape:connector-curvature="0"
     inkscape:export-xdpi="89.809998"
     inkscape:export-ydpi="89.809998" />
  <path
     style="opacity:1;fill:#6c6753;fill-opacity:1"
     d="m 286.66866,357.24484 c -19.12993,-17.93115 -31.97513,-32.94317 -31.97513,-37.36886 0,-2.06094 3.46316,-5.15483 5.77004,-5.15483 2.47806,0 7.65604,4.1181 16.25398,12.92695 8.50884,8.71756 11.99845,11.25817 13.45043,9.79258 0.54345,-0.54851 1.06471,-10.47157 1.43677,-27.35136 0.36007,-16.33552 0.93416,-27.45495 1.49759,-29.00633 1.50754,-4.15084 7.02856,-5.69312 10.42946,-2.91344 2.40307,1.9641 3.12139,8.87959 3.25089,31.29718 0.0991,17.12458 0.69209,26.46446 1.74838,27.53064 1.31055,1.32284 5.03857,-1.55964 15.81326,-12.22672 l 11.68838,-11.57165 3.30633,2.14546 c 1.81846,1.17999 3.87185,3.11179 4.56305,4.29287 1.25269,2.14049 1.23142,2.17577 -6.60557,10.9433 -9.98739,11.17329 -36.69902,37.49313 -38.05127,37.49313 -0.56305,0 -6.22253,-4.87301 -12.57659,-10.82892 z"
     id="path4395"
     inkscape:connector-curvature="0"
     inkscape:export-xdpi="89.809998"
     inkscape:export-ydpi="89.809998" />
  <path
     style="opacity:1;fill:#6c6753;fill-opacity:1"
     d="m 97.958923,171.41693 c -2.350001,-1.58882 -2.853384,-5.02204 -3.57185,-24.36115 -0.409149,-11.01311 -0.740799,-22.39575 -0.737007,-25.29476 0.0085,-6.48059 -0.908296,-10.05371 -2.667606,-10.39693 -0.791118,-0.15433 -3.62407,2.00676 -6.950046,5.3018 -3.088005,3.05929 -5.614558,5.40693 -5.614558,5.21698 0,-0.18996 -3.054884,2.6242 -6.788632,6.25369 -3.73375,3.62947 -7.277634,6.59904 -7.875298,6.59904 -0.597667,0 -2.464749,-1.2062 -4.149079,-2.68043 -2.639936,-2.31064 -2.9846,-2.99435 -2.49838,-4.9559 0.568429,-2.29319 27.296277,-30.45091 38.306263,-40.35556 4.384878,-3.94465 5.72051,-4.73613 7.20786,-4.2713 2.31514,0.72354 36.38475,35.21539 39.60862,40.09952 3.46096,5.24331 3.74373,7.08664 1.44431,9.41488 -3.73482,3.78163 -6.46656,2.29179 -19.67554,-10.73069 -10.54217,-10.39331 -12.94045,-11.77614 -13.87624,-8.00091 -0.27758,1.11983 -0.85121,12.11582 -1.27473,24.43553 -0.91953,26.74843 -1.27557,30.11407 -3.4403,32.52223 -1.63292,1.81655 -5.594491,2.45694 -7.447787,1.20396 z"
     id="path4397"
     inkscape:connector-curvature="0"
     inkscape:export-xdpi="89.809998"
     inkscape:export-ydpi="89.809998" />
  <path
     style="opacity:1;fill:#6c6753;fill-opacity:1"
     d="m 292.36088,170.83872 c -3.94481,-4.24406 -1.99729,-7.89908 11.08516,-20.80446 8.16921,-8.05864 10.37858,-11.26924 9.14413,-13.28807 -0.33901,-0.55441 -6.75232,-0.85443 -18.52935,-0.86685 -19.85531,-0.0209 -35.67526,-0.99426 -38.17971,-2.34896 -3.51122,-1.8993 -3.37221,-9.46596 0.21016,-11.44035 1.12833,-0.62185 10.26819,-1.13794 27.10237,-1.53037 23.5539,-0.54906 29.76552,-1.16448 29.76552,-2.94902 0,-1.15637 -5.43186,-7.39214 -14.9427,-17.15434 l -9.12743,-9.368597 1.42221,-2.26416 c 2.06185,-3.282414 5.33296,-6.676581 6.43451,-6.676581 2.18006,0 43.20603,40.439268 45.5861,44.934208 0.60452,1.14167 -1.2117,3.53715 -9.82314,12.95603 -16.94579,18.53465 -33.02813,32.76506 -37.02905,32.76506 -0.71155,0 -2.11501,-0.8836 -3.11878,-1.96354 z"
     id="path4399"
     inkscape:connector-curvature="0"
     inkscape:export-xdpi="89.809998"
     inkscape:export-ydpi="89.809998" />
  <path
     style="opacity:1;fill:#6c6753;fill-opacity:1"
     d="m 108.00463,280.14998 c 4.02251,4.26828 2.11287,7.81218 -11.298686,20.968 -8.42934,8.2686 -10.5977,11.36583 -9.3575,13.36618 0.34615,0.55834 6.89479,0.86052 18.920376,0.873 20.27431,0.021 36.42812,1.00129 38.98542,2.36562 3.5853,1.91276 3.44336,9.53303 -0.2146,11.52142 -1.15213,0.62628 -10.48488,1.14602 -27.67432,1.54123 -24.050976,0.55294 -30.393676,1.17273 -30.393676,2.96992 0,1.16286 5.54157,7.43955 15.211376,17.22926 8.7536,8.86215 9.21772,9.49615 8.28071,11.31127 -1.32787,2.57227 -5.75075,7.17451 -6.89488,7.17451 -2.22233,0 -44.206296,-40.82101 -46.640066,-45.34815 -1.36413,-2.53743 32.69273,-37.14686 42.9669,-43.66405 4.409916,-2.79733 5.716356,-2.84698 8.108946,-0.30821 z"
     id="path4401"
     inkscape:connector-curvature="0"
     inkscape:export-xdpi="89.809998"
     inkscape:export-ydpi="89.809998" />
  <path
     style="opacity:1;fill:#d40000;fill-opacity:1"
     d="m 118.63383,238.65655 c 47.1302,8.92764 77.33727,52.0296 70.08352,100.00097 -4.13531,27.34811 -21.58231,51.48241 -46.10125,63.77145 -13.4252,6.72882 -21.58433,8.73496 -37.85819,9.30841 -17.337033,0.61093 -28.115193,-1.62263 -42.493113,-8.80589 -30.12287,-15.04949 -48.4314,-44.74066 -48.47727,-78.61627 -0.0138,-9.84051 0.95073,-15.96223 3.96193,-25.15763 9.87432,-30.15397 31.55316,-51.172 60.7538,-58.9019 10.16094,-2.68976 30.164873,-3.48688 40.130573,-1.59914 z m -27.072343,25.46671 c -5.57979,3.37109 -21.48881,18.29201 -34.42547,32.28736 -18.4182,19.92547 -20.40858,26.5887 -11.80216,39.51013 6.39791,9.6056 40.97458,42.9369 49.29646,47.52093 10.468573,5.76652 25.319233,0.29188 30.550803,-11.26241 1.58968,-3.51093 1.91455,-5.54718 1.90021,-11.91043 -0.0101,-4.40241 -0.42852,-8.40541 -0.98161,-9.38715 -0.53037,-0.94139 -0.73397,-1.94123 -0.45248,-2.22185 0.2815,-0.2806 3.27765,-0.51296 6.65809,-0.51631 7.89521,-0.008 15.70418,-1.28201 20.32512,-3.31646 14.05929,-6.18976 17.98261,-27.27645 7.15107,-38.43494 -4.32807,-4.45873 -9.29646,-5.98986 -22.49929,-6.93377 -6.48923,-0.46392 -11.91597,-0.93454 -12.05944,-1.04582 -0.14349,-0.11128 0.34962,-1.96379 1.09578,-4.11668 0.74615,-2.15291 1.40189,-6.64117 1.4572,-9.97393 0.13345,-8.04166 -1.99476,-12.5273 -8.27559,-17.44249 -6.10522,-4.77773 -9.68315,-5.98008 -17.14756,-5.76226 -5.384113,0.1569 -6.666993,0.51446 -10.791133,3.00608 z"
     id="path4403"
     inkscape:connector-curvature="0"
     inkscape:export-xdpi="89.809998"
     inkscape:export-ydpi="89.809998" />
  <path
     style="opacity:1;fill:#5555ff;fill-opacity:1"
     d="m 282.75812,211.72813 c -46.14245,-8.86219 -75.73676,-51.67751 -68.63506,-99.29711 4.04987,-27.155638 21.13625,-51.12006 45.14845,-63.322632 13.14777,-6.681446 21.13827,-8.673454 37.07577,-9.242889 9.83174,-0.351269 13.72835,-0.161948 19.04993,0.925599 18.05303,3.689387 32.34906,11.423123 45.21697,24.461043 14.33362,14.522976 21.98178,31.20129 24.62765,53.705099 1.57418,13.38935 -0.89138,27.39923 -7.48815,42.54931 -10.79158,24.78369 -30.29816,41.81734 -55.69436,48.63371 -9.95092,2.67083 -29.54143,3.46234 -39.3012,1.58787 z m 26.51285,-25.28746 c 5.46448,-3.34738 21.0447,-18.16326 33.71401,-32.06013 18.03718,-19.78481 19.98309,-26.38876 11.56152,-39.23699 -3.57887,-5.46001 -28.94497,-31.656932 -38.63057,-39.895814 -11.48763,-9.771756 -15.87539,-11.255767 -24.99864,-8.454944 -10.13921,3.11271 -15.88482,10.630324 -16.64021,21.772248 -0.30734,4.532906 -0.0752,6.551636 1.47594,12.83538 0.24584,0.99582 -1.28507,1.29 -8.90178,1.7106 -16.4664,0.90928 -22.8457,4.11313 -27.71058,13.91694 -2.41319,4.86307 -2.77154,6.33848 -2.72806,11.23161 0.0866,9.72696 4.55366,17.05073 12.51064,20.51043 3.04021,1.32188 6.82727,1.95037 15.57194,2.58425 6.35508,0.46067 11.66968,0.92798 11.81019,1.03847 0.14063,0.1105 -0.33536,1.94997 -1.05747,4.08772 -0.7256,2.14808 -1.3449,6.60649 -1.38445,9.96651 -0.0948,8.05956 1.93124,12.40496 8.04624,17.25694 5.97906,4.74412 9.48301,5.93798 16.79317,5.72173 5.27284,-0.15599 6.52924,-0.51087 10.56811,-2.98495 z"
     id="path4405"
     inkscape:connector-curvature="0"
     inkscape:export-xdpi="89.809998"
     inkscape:export-ydpi="89.809998" />
  <path
     style="opacity:1;fill:#2aff2a;fill-opacity:1"
     d="m 285.9276,410.52006 c -7.61793,-1.54228 -14.5831,-4.03704 -23.67893,-8.48121 -25.06932,-12.24878 -41.35187,-33.74481 -46.47859,-61.36058 -1.61953,-8.72387 -1.63728,-25.86013 -0.0353,-34.11164 5.73178,-29.52362 24.81615,-53.05084 52.16042,-64.30341 10.19034,-4.19346 19.58656,-5.93093 32.143,-5.94361 17.95333,-0.0185 31.00406,3.42969 45.45419,12.00846 38.64594,22.94338 53.22409,73.54159 32.98675,114.49127 -12.8193,25.93942 -33.60917,41.73514 -62.34697,47.36992 -9.09381,1.78306 -22.31595,1.92787 -30.20456,0.3308 z m 20.42227,-26.9916 c 5.72321,-2.65413 12.53475,-8.56784 28.19762,-24.48079 16.36244,-16.62369 22.80774,-24.14575 25.16713,-29.37164 1.84539,-4.08737 1.9105,-11.01103 0.15258,-16.21868 -1.80326,-5.34184 -8.13061,-11.72844 -13.4229,-13.54859 -4.88065,-1.67858 -15.4667,-1.79933 -19.2135,-0.21916 l -2.69339,1.1359 -0.57887,-9.82592 c -0.77565,-13.1666 -2.54637,-18.8549 -7.44607,-23.92 -5.14116,-5.31468 -11.27712,-7.62052 -18.97218,-7.12954 -6.0674,0.3871 -12.16984,2.92722 -15.37768,6.40087 -4.13465,4.47729 -6.62889,14.19525 -6.64029,25.87177 -0.009,8.57914 -0.20192,8.94499 -3.87052,7.31584 -2.00462,-0.89021 -5.36878,-1.31999 -10.55123,-1.34795 -8.68553,-0.047 -10.90756,0.80354 -16.03581,6.13735 -7.81722,8.13053 -9.87356,19.35784 -5.15203,28.12927 3.21274,5.9685 14.56446,18.4975 29.89328,32.99352 12.52997,11.84926 18.98585,16.91249 23.72991,18.61101 3.72434,1.33344 9.28799,1.1019 12.81398,-0.53326 z"
     id="path4407"
     inkscape:connector-curvature="0"
     inkscape:export-xdpi="89.809998"
     inkscape:export-ydpi="89.809998" />
  <path
     style="fill:#000000"
     d="m 473.05325,223.22183 c -33.15759,-9.61306 -59.55084,-36.08761 -69.16564,-69.3787 -3.80888,-13.18815 -3.80888,-40.78762 0,-53.975755 9.58773,-33.1974 35.36499,-59.41352 68.00667,-69.1645 5.87753,-1.75578 16.64878,-2.95541 26.5361,-2.95541 27.9675,0 50.20296,9.28963 69.35693,28.97626 12.34402,12.6873 22.72407,32.00701 26.3481,49.040035 3.08231,14.4869 1.42715,40.65553 -3.43848,54.36367 -9.77808,27.54811 -32.41864,50.53732 -59.75619,60.67639 -13.53834,5.02114 -44.45444,6.31255 -57.88749,2.41801 z m 52.3013,-12.22278 c 36.56162,-12.42445 59.59572,-44.98938 59.59572,-84.25462 0,-35.359265 -17.85958,-64.747865 -48.26898,-79.428355 -22.11509,-10.67632 -40.38192,-12.25108 -63.7515,-5.49594 -35.56139,10.27928 -61.21207,44.99668 -61.45885,83.182625 -0.25555,39.5463 22.26854,72.42742 58.53253,85.44691 16.14773,5.79735 39.23352,6.02648 55.35108,0.54938 z m -36.94226,-23.4779 c -8.72077,-4.43069 -12.74395,-13.3165 -12.74747,-28.15485 -0.002,-9.29328 -0.48856,-11.4545 -2.1886,-9.72552 -1.20216,1.22263 -5.99894,2.22297 -10.65946,2.22297 -11.61334,0 -20.06312,-5.92896 -23.33521,-16.37363 -3.73014,-11.90678 -0.60472,-17.44438 24.34088,-43.126995 34.50937,-35.52896 36.82714,-35.6195 69.84634,-2.7285 24.3402,24.245685 27.60238,28.872405 27.60238,39.148245 0,8.83249 -7.98731,20.25717 -15.88601,22.72263 -5.5442,1.73053 -15.76805,0.58112 -20.32858,-2.28543 -1.42289,-0.89437 -2.03631,2.4355 -2.03631,11.05369 0,15.17338 -3.61524,23.62008 -11.80023,27.57024 -7.86061,3.79361 -14.9016,3.69394 -22.80773,-0.32285 z m 25.95597,-7.83505 c 4.63422,-5.22815 5.00904,-6.82714 5.00904,-21.36788 0,-16.61107 1.05484,-18.29049 8.0894,-12.87923 1.94464,1.49589 6.59481,2.7198 10.33371,2.7198 12.61656,0 22.69286,-13.83571 18.90828,-25.96287 -0.69603,-2.23036 -11.81012,-14.80709 -24.69798,-27.948285 l -23.43243,-23.89308 -8.64238,0 -8.64237,0 -24.20901,24.62117 c -22.51334,22.896625 -24.20901,25.110955 -24.20901,31.613975 0,17.50485 15.02004,26.87932 30.21826,18.86015 2.82374,-1.48991 5.46605,-2.37132 5.8718,-1.95865 0.40575,0.41264 0.853,7.40695 0.99391,15.54289 0.2052,11.84813 1.01401,15.82442 4.06333,19.97626 7.1887,9.78784 21.97662,10.11712 30.34545,0.67575 z m -21.90774,-2.91889 c -3.87653,-2.76145 -4.04823,-4.05903 -4.04823,-30.59392 l 0,-27.71016 -10.28657,11.14287 c -7.51993,8.14593 -11.57504,11.14287 -15.07722,11.14287 -7.57327,0 -12.88711,-4.85244 -12.88711,-11.76812 0,-5.20302 2.95463,-9.00553 22.22939,-28.60843 18.74822,-19.067405 23.09822,-22.603885 27.77744,-22.582605 4.66618,0.0212 9.09472,3.66299 27.86108,22.911295 24.03941,24.65678 25.96955,28.49848 18.09731,36.01997 -6.8593,6.5537 -11.86093,5.15677 -23.50892,-6.5659 l -10.52628,-10.59378 0,26.01697 c 0,24.80002 -0.19716,26.20536 -4.2157,30.04484 -4.9769,4.75515 -9.83939,5.11604 -15.41519,1.1441 z m 13.96092,-6.79353 c 0.82419,-2.26591 1.60117,-15.39538 1.72662,-29.17658 0.12545,-13.78121 0.24437,-25.68196 0.26426,-26.4461 0.0938,-3.60479 5.72012,-0.70159 10.8392,5.59308 3.12313,3.84034 8.52279,9.29067 11.99928,12.11184 5.17075,4.19609 6.98557,4.76761 9.97399,3.14104 7.35505,-4.00332 4.33789,-9.4403 -17.7207,-31.93303 -11.75561,-11.986965 -22.28078,-21.794485 -23.38929,-21.794485 -2.64519,0 -45.23108,43.647835 -45.96651,47.112785 -0.31173,1.46868 1.58632,4.10512 4.2179,5.85874 l 4.78468,3.18841 12.22105,-12.33387 c 6.72159,-6.78363 13.22506,-12.33388 14.45218,-12.33388 1.66331,0 2.23114,7.21329 2.23114,28.34298 0,19.57455 0.6762,29.03068 2.18576,30.56594 3.66605,3.72848 10.52272,2.66068 12.18044,-1.89687 z"
     id="path4313-2"
     inkscape:connector-curvature="0"
     sodipodi:nodetypes="sssssssssssssssssssssssssssssssssssscccssssssssscsssssssscssssssssssssscsssss"
     inkscape:export-xdpi="89.809998"
     inkscape:export-ydpi="89.809998" />
  <path
     style="fill:#000000"
     d="m 602.68037,102.01618 c 9.36807,-33.362305 35.16782,-59.918505 67.61037,-69.592675 12.85199,-3.83239 39.748,-3.83239 52.59999,0 32.35124,9.64693 57.89916,35.58334 67.40161,68.426535 1.71103,5.91382 2.88008,16.75156 2.88008,26.69993 0,28.14015 -9.05286,50.51288 -28.2377,69.78512 -12.36393,12.42024 -31.19122,22.86437 -47.79007,26.51079 -14.11766,3.10132 -39.61928,1.43594 -52.97803,-3.45972 -26.84594,-9.83845 -49.2492,-32.6188 -59.12982,-60.12513 -4.89316,-13.62192 -6.15167,-44.72887 -2.35643,-58.24485 z m 11.91126,52.62417 c 12.10778,36.78735 43.84269,59.96368 82.10712,59.96368 34.45799,0 63.09751,-17.96987 77.40382,-48.567 10.4042,-22.25163 11.93881,-40.63124 5.35586,-64.14508 -10.01728,-35.780945 -43.84977,-61.589985 -81.06242,-61.838285 -38.53831,-0.25714 -70.58133,22.40602 -83.26899,58.8939 -5.64959,16.247425 -5.87286,39.475725 -0.53539,55.692785 z m 22.87949,-37.17031 c 4.31777,-8.77463 12.97709,-12.82265 27.43723,-12.82618 9.0564,-0.002 11.16254,-0.49157 9.47764,-2.20211 -1.19149,-1.20959 -2.16632,-6.035975 -2.16632,-10.725275 0,-11.68503 5.77785,-20.18698 15.95629,-23.47928 11.60327,-3.75316 16.99974,-0.60844 42.02773,24.49116 34.6234,34.722435 34.71163,37.054505 2.65897,70.277555 -23.6277,24.49046 -28.13648,27.77279 -38.15042,27.77279 -8.60736,0 -19.74083,-8.03662 -22.14346,-15.98409 -1.6864,-5.57841 -0.56631,-15.86541 2.22719,-20.45408 0.87157,-1.43168 -2.37343,-2.04888 -10.77196,-2.04888 -14.78662,0 -23.01803,-3.63756 -26.86751,-11.87307 -3.69692,-7.90915 -3.59977,-14.99361 0.31462,-22.94854 z m 7.63535,26.1162 c 5.0949,4.66281 6.65312,5.03998 20.82325,5.03998 16.18769,0 17.82427,1.06133 12.55095,8.13933 -1.45776,1.95664 -2.65047,6.63552 -2.65047,10.39749 0,12.69447 13.48305,22.83298 25.30112,19.02504 2.17349,-0.70034 14.42969,-11.88305 27.23591,-24.85045 l 23.28409,-23.57712 0,-8.69573 0,-8.69572 -23.99362,-24.358465 c -22.31303,-22.65235 -24.47092,-24.35848 -30.80819,-24.35848 -17.05868,0 -26.19419,15.11277 -18.3794,30.404825 1.45193,2.84116 2.31085,5.49981 1.90871,5.90805 -0.40214,0.40825 -7.21816,0.85827 -15.14672,1.00005 -11.54614,0.20645 -15.42108,1.02025 -19.4671,4.08842 -9.53836,7.23308 -9.85926,22.11227 -0.65853,30.53278 z m 2.84449,-22.043 c 2.69106,-3.90045 3.95558,-4.0732 29.81413,-4.0732 l 27.00388,0 -10.85887,-10.35009 c -7.93831,-7.566345 -10.85883,-11.646495 -10.85883,-15.170285 0,-7.62005 4.72874,-12.96668 11.46817,-12.96668 5.07036,0 8.77596,2.97287 27.87922,22.366615 18.5814,18.86397 22.02775,23.24082 22.00701,27.94893 -0.0208,4.695 -3.56964,9.15086 -22.32732,28.03308 -24.02833,24.18782 -27.77209,26.1299 -35.10189,18.20906 -6.38665,-6.90166 -5.02532,-11.93417 6.39855,-23.65405 l 10.32377,-10.59127 -25.35384,0 c -24.1679,0 -25.53742,-0.19841 -29.27903,-4.24173 -4.63394,-5.00763 -4.98564,-9.90014 -1.11495,-15.51038 z m 6.62036,14.04712 c 2.20817,0.82928 15.00299,1.61105 28.43294,1.73729 13.42995,0.12626 25.02734,0.24587 25.77202,0.26589 3.51291,0.0943 0.68369,5.75542 -5.45053,10.9061 -3.74246,3.14242 -9.05387,8.57541 -11.80312,12.07336 -4.08915,5.20268 -4.64612,7.02871 -3.06096,10.03557 3.90124,7.40045 9.19965,4.36467 31.11908,-17.8301 11.68143,-11.82816 21.23899,-22.41834 21.23899,-23.5337 0,-2.66152 -42.53532,-45.510295 -45.91197,-46.250275 -1.43123,-0.31366 -4.00047,1.5961 -5.7094,4.24395 l -3.10714,4.81421 12.01949,12.296505 c 6.61071,6.76307 12.01952,13.30671 12.01952,14.5414 0,1.67358 -7.02946,2.24491 -27.62054,2.24491 -19.07566,0 -28.29076,0.68038 -29.78688,2.19925 -3.63346,3.6887 -2.59287,10.58769 1.8485,12.25564 z"
     id="path4313-9-0"
     inkscape:connector-curvature="0"
     sodipodi:nodetypes="sssssssssssssssssssssssssssssssssssscccssssssssscsssssssscssssssssssssscsssss"
     inkscape:export-xdpi="89.809998"
     inkscape:export-ydpi="89.809998" />
  <path
     style="fill:#000000"
     d="m 596.32361,351.59746 c -9.56576,33.59881 -35.90997,60.34323 -69.03718,70.08598 -13.12321,3.85954 -40.58682,3.85954 -53.71002,0 -33.03397,-9.71531 -59.12104,-35.83556 -68.82405,-68.91156 -1.74711,-5.95576 -2.94084,-16.8703 -2.94084,-26.8892 0,-28.33961 9.24388,-50.87091 28.83362,-70.27974 12.62485,-12.5083 31.84946,-23.02645 48.79862,-26.6987 14.41558,-3.12332 40.45537,-1.44613 54.09603,3.48423 27.4125,9.9082 50.28853,32.85 60.37768,60.55129 4.99643,13.71849 6.28148,45.04593 2.40614,58.6577 z m -12.16264,-52.99718 c -12.36328,-37.0481 -44.76789,-60.38869 -83.83983,-60.38869 -35.18519,0 -64.42911,18.09723 -79.03733,48.91124 -10.62376,22.40936 -12.19078,40.91924 -5.4689,64.59976 10.22868,36.03455 44.77517,62.02654 82.77313,62.27659 39.35162,0.25896 72.07087,-22.56483 85.02625,-59.31133 5.76882,-16.36261 5.99682,-39.75556 0.54668,-56.08757 z m -23.36231,37.4338 c -4.40887,8.83682 -13.25095,12.91353 -28.01624,12.91708 -9.24753,0.002 -11.39813,0.49506 -9.67766,2.21771 1.21662,1.21818 2.21204,6.07876 2.21204,10.80132 0,11.76785 -5.89977,20.33006 -16.29301,23.64569 -11.84817,3.77976 -17.35851,0.61277 -42.9147,-24.66476 -35.35403,-34.96853 -35.44414,-37.31716 -2.71507,-70.77571 24.12633,-24.66405 28.73029,-27.96962 38.95554,-27.96962 8.789,0 20.15744,8.09359 22.61076,16.09738 1.72201,5.61796 0.57825,15.97787 -2.27418,20.59906 -0.88996,1.44182 2.42349,2.0634 10.99927,2.0634 15.09868,0 23.5038,3.66335 27.43452,11.95724 3.77492,7.96519 3.67575,15.09988 -0.32127,23.11121 z m -7.79648,-26.30133 c -5.20241,-4.69587 -6.79353,-5.0757 -21.26268,-5.0757 -16.52931,0 -18.20044,-1.06886 -12.81583,-8.19702 1.48853,-1.97051 2.70641,-6.68254 2.70641,-10.47119 0,-12.78444 -13.7676,-22.99483 -25.83506,-19.15991 -2.21937,0.70533 -14.73419,11.96728 -27.8107,25.0266 l -23.77547,23.74425 0,8.75736 0,8.75736 24.49999,24.53114 c 22.78391,22.81289 24.98733,24.53111 31.45835,24.53111 17.41866,0 26.74697,-15.21988 18.76729,-30.62033 -1.48259,-2.8613 -2.35964,-5.53877 -1.94901,-5.94993 0.41063,-0.41114 7.37047,-0.86435 15.46637,-1.00714 11.7898,-0.20792 15.74652,-1.02748 19.87792,-4.11739 9.73965,-7.28435 10.06732,-22.26902 0.67242,-30.74921 z m -2.90451,22.19923 c -2.74786,3.92812 -4.03907,4.1021 -30.44331,4.1021 l -27.57374,0 11.088,10.42345 c 8.10583,7.61999 11.088,11.72905 11.088,15.27782 0,7.67405 -4.82854,13.05857 -11.71017,13.05857 -5.1774,0 -8.96119,-2.99392 -28.46759,-22.52515 -18.97353,-18.99769 -22.49259,-23.40556 -22.47142,-28.14702 0.0212,-4.7283 3.64495,-9.21575 22.79848,-28.2318 24.5354,-24.35926 28.35819,-26.31512 35.84266,-18.33812 6.52143,6.95059 5.13139,12.01877 -6.53357,23.82171 l -10.54162,10.66634 25.88886,0 c 24.67794,0 26.07637,0.19982 29.89694,4.27179 4.73175,5.04311 5.09085,9.97032 1.13848,15.62031 z m -6.76008,-14.14668 c -2.25477,-0.83515 -15.31961,-1.62246 -29.03297,-1.74959 -13.71335,-0.12714 -25.55552,-0.24763 -26.3159,-0.26778 -3.58704,-0.095 -0.69813,-5.79622 5.56554,-10.98342 3.82144,-3.16467 9.24495,-8.6362 12.05222,-12.15893 4.17544,-5.23954 4.74415,-7.07853 3.12557,-10.10669 -3.9836,-7.45291 -9.39381,-4.39561 -31.77581,17.95646 -11.92795,11.91201 -21.68721,22.57726 -21.68721,23.70053 0,2.68038 43.43297,45.8329 46.88087,46.57811 1.46143,0.31587 4.0849,-1.60742 5.82989,-4.27403 l 3.17272,-4.84833 -12.27316,-12.38367 c -6.75022,-6.811 -12.27315,-13.40103 -12.27315,-14.64446 0,-1.68546 7.17778,-2.26084 28.20343,-2.26084 19.4782,0 28.88778,-0.68519 30.41548,-2.21485 3.71012,-3.71484 2.64758,-10.66273 -1.88752,-12.34251 z"
     id="path4313-9-4-3"
     inkscape:connector-curvature="0"
     sodipodi:nodetypes="sssssssssssssssssssssssssssssssssssscccssssssssscsssssssscssssssssssssscsssss"
     inkscape:export-xdpi="89.809998"
     inkscape:export-ydpi="89.809998" />
  <path
     style="fill:#000000"
     d="m 723.7955,228.52956 c 33.15761,9.58299 59.55086,35.97465 69.16566,69.16153 3.80888,13.14685 3.80888,40.65994 0,53.80679 -9.58774,33.09348 -35.36499,59.22753 -68.00667,68.94799 -5.87755,1.75027 -16.64879,2.94615 -26.53611,2.94615 -27.96749,0 -50.20294,-9.26056 -69.35692,-28.88555 -12.34404,-12.64758 -22.72406,-31.90682 -26.3481,-48.88651 -3.0823,-14.44156 -1.42714,-40.52826 3.43849,-54.19349 9.77806,-27.46187 32.41862,-50.37912 59.75617,-60.48643 13.53835,-5.00544 44.45444,-6.2928 57.88748,-2.41048 z m -52.30127,12.18454 c -36.56164,12.38556 -59.59573,44.84854 -59.59573,83.99087 0,35.24857 17.85958,64.54516 48.26898,79.17969 22.11508,10.6429 40.38193,12.21273 63.7515,5.47874 35.56139,-10.24711 61.21208,-44.85581 61.45885,-82.92222 0.25555,-39.4225 -22.26855,-72.20068 -58.53253,-85.17941 -16.14774,-5.7792 -39.23353,-6.00762 -55.35107,-0.54767 z m 36.94224,23.4044 c 8.72079,4.41683 12.74396,13.27482 12.74748,28.06672 0.002,9.26418 0.48856,11.41864 2.18859,9.69508 1.20217,-1.21881 5.99894,-2.21602 10.65947,-2.21602 11.61333,0 20.06312,5.9104 23.33521,16.32237 3.73014,11.86949 0.60472,17.38976 -24.34088,42.99199 -34.50938,35.41774 -36.82715,35.508 -69.84635,2.71996 -24.34019,-24.16979 -27.60238,-28.78203 -27.60238,-39.0257 0,-8.80484 7.98731,-20.19376 15.88602,-22.65149 5.54418,-1.72512 15.76806,-0.57931 20.32857,2.27827 1.4229,0.89157 2.03632,-2.42787 2.03632,-11.01908 0,-15.12588 3.61523,-23.54614 11.80022,-27.48394 7.8606,-3.78173 14.9016,-3.68238 22.80773,0.32184 z m -25.95597,7.81053 c -4.6342,5.21178 -5.00905,6.80576 -5.00905,21.30098 0,16.55908 -1.05483,18.23323 -8.08938,12.83892 -1.94465,-1.49122 -6.5948,-2.71129 -10.3337,-2.71129 -12.61657,0 -22.69288,13.7924 -18.9083,25.88159 0.69604,2.22337 11.81013,14.76075 24.69797,27.8608 l 23.43245,23.8183 8.64237,0 8.64237,0 24.20901,-24.5441 c 22.51336,-22.82497 24.20901,-25.03236 24.20901,-31.51503 0,-17.45004 -15.02002,-26.79516 -30.21826,-18.80109 -2.82374,1.48524 -5.46605,2.36388 -5.8718,1.95252 -0.40573,-0.41138 -0.853,-7.38377 -0.99391,-15.49425 -0.20519,-11.81103 -1.014,-15.77488 -4.06333,-19.91372 -7.1887,-9.75719 -21.97661,-10.08545 -30.34545,-0.67363 z m 21.90775,2.90975 c 3.87653,2.7528 4.04822,4.04633 4.04822,30.49814 l 0,27.62342 10.28658,-11.10799 c 7.51992,-8.12043 11.57503,-11.10798 15.07721,-11.10798 7.57328,0 12.88711,4.83724 12.88711,11.73128 0,5.18672 -2.95463,8.97734 -22.22939,28.51886 -18.74822,19.00772 -23.09822,22.53313 -27.77744,22.51191 -4.66618,-0.0212 -9.09471,-3.65152 -27.86108,-22.83957 -24.03939,-24.57958 -25.96955,-28.40926 -18.09732,-35.90721 6.85932,-6.53318 11.86095,-5.14063 23.50892,6.54534 l 10.52628,10.56062 0,-25.93551 c 0,-24.72238 0.1972,-26.12333 4.21571,-29.95079 4.9769,-4.74026 9.83939,-5.10002 15.4152,-1.14052 z m -13.96092,6.77225 c -0.8242,2.25884 -1.60117,15.3472 -1.72663,29.08526 -0.1255,13.73806 -0.24437,25.60156 -0.26426,26.36332 -0.0938,3.59349 -5.72011,0.69937 -10.83919,-5.57559 -3.12313,-3.82832 -8.5228,-9.26159 -11.99927,-12.07392 -5.17076,-4.18295 -6.98558,-4.7527 -9.974,-3.1312 -7.35505,3.99078 -4.33789,9.41074 17.72069,31.83306 11.7556,11.94945 22.28079,21.72626 23.3893,21.72626 2.6452,0 45.23107,-43.5112 45.96651,-46.96531 0.31173,-1.46407 -1.58632,-4.09225 -4.21791,-5.84039 l -4.78468,-3.17844 -12.22105,12.29527 c -6.72157,6.76239 -13.22507,12.29527 -14.45217,12.29527 -1.66332,0 -2.23115,-7.19073 -2.23115,-28.25425 0,-19.51329 -0.6762,-28.9398 -2.18576,-30.47026 -3.66605,-3.7168 -10.52271,-2.65236 -12.18043,1.89092 z"
     id="path4313-9-4-4-8"
     inkscape:connector-curvature="0"
     sodipodi:nodetypes="sssssssssssssssssssssssssssssssssssscccssssssssscsssssssscssssssssssssscsssss"
     inkscape:export-xdpi="89.809998"
     inkscape:export-ydpi="89.809998" />
  <path
     style="opacity:1;fill:#859642;fill-opacity:1;filter:url(#filter4645)"
     d="m 487.05114,213.9758 c -19.47659,-2.47192 -37.49776,-11.85144 -51.5135,-26.81136 -13.40055,-14.30327 -21.03014,-31.61012 -23.17939,-52.5797 -1.69781,-16.56514 0.96921,-31.25073 8.53008,-46.969955 5.03689,-10.4718 10.03182,-17.42879 18.13139,-25.25358 10.76767,-10.40236 21.82988,-16.62716 37.41508,-21.05378 10.10944,-2.87136 27.53941,-3.60219 37.40805,-1.5685 17.12245,3.52852 34.68612,13.05169 46.55866,25.24447 35.57816,36.537825 31.17711,100.684845 -9.02141,131.491035 -11.64901,8.92724 -26.32487,15.30627 -39.50276,17.17035 -5.82958,0.82464 -19.50082,1.00692 -24.8262,0.33102 z m 23.35707,-25.40797 c 8.74661,-3.82675 11.97233,-10.74419 12.89784,-27.65894 0.31495,-5.75627 0.75202,-10.64837 0.97125,-10.87134 0.21921,-0.22296 1.88182,0.12687 3.69468,0.77736 10.04678,3.60506 18.9261,2.13744 25.10831,-4.15001 5.71109,-5.80832 8.12498,-11.43314 8.11525,-18.91001 -0.0118,-9.03167 -1.95145,-12.06572 -19.12817,-29.920345 -24.92771,-25.91152 -33.48409,-32.53739 -41.97178,-32.50202 -8.50911,0.0355 -15.14335,4.88426 -35.98609,26.30125 -20.89461,21.470285 -26.09457,28.663015 -26.09457,36.094715 0,9.37169 4.87767,17.82862 12.45857,21.60075 5.58819,2.78059 15.48122,3.60598 20.76731,1.73266 3.19044,-1.13065 3.34408,-1.10914 3.77646,0.52905 0.24789,0.9392 0.45562,4.82395 0.4616,8.63275 0.0192,12.17174 3.55435,21.55286 9.67426,25.67176 7.9868,5.37541 16.91705,6.32036 25.25508,2.67237 z"
     id="path4379-7"
     inkscape:connector-curvature="0"
     inkscape:export-xdpi="89.809998"
     inkscape:export-ydpi="89.809998" />
  <path
     style="opacity:1;fill:#6c6753;fill-opacity:1"
     d="m 496.83959,173.04147 c -1.52303,-0.5662 -2.4283,-1.6975 -3.03107,-3.78781 -0.47271,-1.63927 -1.03346,-12.83306 -1.24612,-24.87509 -0.56091,-31.76267 -0.82565,-33.48027 -4.7568,-30.86063 -1.19477,0.79618 -7.15124,6.3322 -13.23658,12.30228 -6.08534,5.97008 -11.36362,10.85469 -11.72949,10.85469 -1.41344,0 -7.17457,-4.86178 -7.6799,-6.481 -0.37035,-1.18677 0.13385,-2.61789 1.65853,-4.70755 3.77106,-5.16842 41.51227,-43.142505 42.87794,-43.142505 1.86718,0 11.74688,9.12749 26.42954,24.417275 13.44748,14.00352 17.93508,19.86849 17.93508,23.43984 0,2.47527 -1.85735,4.48896 -4.83793,5.24518 -2.7448,0.69641 -9.90243,-4.76916 -17.60038,-13.43965 -3.14428,-3.54153 -6.9259,-7.19908 -8.4036,-8.12789 -4.64214,-2.91786 -5.03559,-2.14028 -5.05917,9.999 -0.0344,17.68502 -1.42454,44.01347 -2.44408,46.28924 -0.51929,1.15909 -2.02463,2.49052 -3.34523,2.9587 -2.76435,0.98008 -2.66421,0.9816 -5.53074,-0.0841 z"
     id="path4383-4"
     inkscape:connector-curvature="0"
     inkscape:export-xdpi="89.809998"
     inkscape:export-ydpi="89.809998" />
  <path
     style="opacity:1;fill:#e3dedb;fill-opacity:1"
     d="m 493.53639,185.34732 c -4.4447,-1.43689 -8.4105,-4.98547 -10.55605,-9.44548 -1.90595,-3.96192 -2.14963,-5.59802 -2.70837,-18.18402 -0.33769,-7.6067 -0.84793,-14.0683 -1.13386,-14.3591 -0.28593,-0.29079 -1.67228,-0.0576 -3.08078,0.51818 -12.35136,5.0492 -17.00037,5.27304 -23.58088,1.13536 -5.46763,-3.43793 -8.23152,-8.52021 -8.70381,-16.00467 -0.34508,-5.46872 -0.17981,-6.3751 1.78352,-9.78235 1.19013,-2.06535 11.86809,-13.76295 23.72882,-25.994665 l 21.56497,-22.23948 8.92771,0 8.9277,0 18.68566,19.25915 c 18.72989,19.304705 26.82341,28.264695 28.51904,31.572225 1.1407,2.22505 1.17834,9.14849 0.0662,12.16419 -4.5962,12.46257 -18.93037,17.54828 -29.28702,10.39094 -3.63239,-2.5103 -5.59273,-2.57159 -6.45311,-0.20175 -0.36431,1.00351 -0.89942,7.59766 -1.1891,14.65367 -0.32244,7.8541 -0.951,13.86198 -1.6209,15.49255 -1.42482,3.46813 -5.80435,7.87922 -9.72119,9.79124 -3.51277,1.71476 -10.73553,2.34384 -14.16849,1.23402 l -3e-5,0 z m 13.18685,-8.36511 c 2.04063,-1.57956 3.83954,-3.81627 4.40233,-5.47366 0.65024,-1.91494 0.96593,-10.47831 0.99667,-27.03628 l 0.045,-24.23364 8.97578,8.84322 c 12.47395,12.28974 16.97869,14.08452 23.42709,9.3338 6.53536,-4.8148 7.4978,-9.4637 3.31142,-15.99539 -3.08096,-4.80699 -34.48366,-37.374065 -40.07935,-41.565445 -5.24765,-3.93069 -9.68446,-4.09527 -14.83919,-0.55043 -5.40333,3.7158 -38.43324,37.597065 -40.95939,42.015135 -5.13375,8.97858 0.16657,18.40994 10.34617,18.40994 4.92824,0 8.54256,-2.60827 18.23175,-13.15695 l 7.65331,-8.33219 0.0107,25.13825 c 0.006,14.75474 0.35047,26.38283 0.83342,28.15135 0.6142,2.2492 1.67435,3.53219 4.18156,5.06053 4.87645,2.97256 9.08227,2.78255 13.46282,-0.60824 z"
     id="path4387-2"
     inkscape:connector-curvature="0"
     inkscape:export-xdpi="89.809998"
     inkscape:export-ydpi="89.809998" />
  <path
     style="opacity:1;fill:#e3dedb;fill-opacity:1"
     d="m 690.01956,185.53459 c -7.95477,-2.4895 -13.55557,-10.21623 -13.51587,-18.6462 0.0237,-5.06196 0.86304,-7.98239 3.28662,-11.43775 1.93059,-2.75251 2.00344,-5.22067 0.17798,-6.02661 -0.76063,-0.33579 -7.48114,-0.84375 -14.93451,-1.12879 -13.01036,-0.49759 -13.68127,-0.60542 -16.79875,-2.69983 -12.73831,-8.558 -12.37287,-27.1451 0.66538,-33.84362 2.86207,-1.47041 13.9281,-2.7075 24.77073,-2.76916 4.62125,-0.0262 6.25851,-0.32423 6.58921,-1.19909 0.242,-0.64027 -0.54981,-3.61865 -1.75963,-6.61865 -5.2991,-13.140435 -0.68504,-24.427925 11.46055,-28.036185 6.03897,-1.79406 10.9747,-1.13781 15.22025,2.02368 1.88819,1.40604 12.94559,12.18846 24.57202,23.96091 l 21.13896,21.404455 0,8.99341 0,8.99344 -19.55847,19.24722 c -31.15044,30.65463 -31.46401,30.86549 -41.31443,27.78277 z m 11.87787,-9.03672 c 5.83308,-3.98374 37.18546,-35.63833 40.2431,-40.63102 3.23432,-5.28126 3.21364,-8.72899 -0.0804,-13.36097 -6.96503,-9.79443 -36.76055,-39.449575 -42.75639,-42.554935 -7.93129,-4.10779 -16.37229,1.84619 -16.37229,11.54845 0,4.57723 2.01328,7.41611 12.46351,17.574445 l 7.97024,7.74764 -25.46483,0.27496 c -28.58636,0.30865 -28.28281,0.24785 -31.3099,6.27165 -2.07903,4.13721 -2.01517,7.97458 0.18742,11.26002 4.41909,6.59173 6.66687,7.04785 35.20813,7.14448 l 19.99598,0.0677 -8.44935,9.39397 c -8.43743,9.38071 -10.60116,12.78792 -10.60116,16.69352 0,5.84377 7.56752,12.99368 12.64388,11.94611 1.08658,-0.22422 3.93143,-1.74343 6.32195,-3.37602 z"
     id="path4389-0"
     inkscape:connector-curvature="0"
     inkscape:export-xdpi="89.809998"
     inkscape:export-ydpi="89.809998" />
  <path
     style="opacity:1;fill:#e3dedb;fill-opacity:1"
     d="m 507.19265,267.50594 c 8.12266,2.50713 13.84164,10.28863 13.80109,18.77836 -0.0243,5.09784 -0.88123,8.03898 -3.35595,11.51883 -1.97134,2.77202 -2.04573,5.25767 -0.18163,6.06932 0.77667,0.33818 7.63902,0.84972 15.24969,1.13681 13.20264,0.49798 13.98642,0.62056 17.08174,2.67157 13.12842,8.69902 12.79643,27.33883 -0.60791,34.13089 -2.92246,1.48083 -14.22203,2.72668 -25.29348,2.78878 -4.82639,0.0272 -6.38688,0.31686 -6.74553,1.25268 -0.25662,0.66958 0.57178,3.66372 1.84089,6.65362 4.19717,9.88812 2.64928,18.61539 -4.32619,24.39181 -5.51718,4.56882 -14.61139,6.15769 -20.27617,3.54251 -1.72117,-0.79458 -12.59217,-10.93883 -26.1451,-24.39723 l -23.19891,-23.03712 0,-9.06699 0,-9.067 19.97123,-19.37873 c 31.853,-30.90793 32.13038,-31.09195 42.18624,-27.98811 z m -12.12851,9.10077 c -5.95618,4.01197 -37.97021,35.89093 -41.09238,40.91902 -4.63635,7.46662 -3.49046,10.30539 10.00966,24.7974 14.64782,15.72403 30.45308,30.21627 34.74296,31.85668 8.20833,3.13879 15.70583,-2.57636 15.70583,-11.97214 0,-4.60967 -2.05578,-7.46868 -12.72653,-17.69901 l -8.13845,-7.80258 26.10912,-0.27688 c 24.7554,-0.26255 26.22293,-0.36203 28.30458,-1.91881 5.08026,-3.79928 6.61324,-10.96259 3.36783,-15.73714 -4.51282,-6.63915 -6.80583,-7.09783 -35.96893,-7.19512 l -20.43575,-0.068 7.34034,-7.94564 c 11.35497,-12.29125 13.14642,-15.43064 11.82148,-20.71634 -0.68587,-2.73614 -5.15755,-7.69203 -8.13135,-9.01185 -3.21599,-1.42729 -5.5601,-0.83192 -10.90841,2.77057 z"
     id="path4391-7"
     inkscape:connector-curvature="0"
     inkscape:export-xdpi="89.809998"
     inkscape:export-ydpi="89.809998" />
  <path
     style="opacity:1;fill:#e3dedb;fill-opacity:1"
     d="m 666.23212,357.59324 c -12.00711,-12.51081 -22.86083,-24.3477 -24.11943,-26.30417 -3.9187,-6.09163 -2.52581,-14.92269 3.31637,-21.02598 4.64664,-4.85432 7.47011,-6.09091 13.93005,-6.10101 4.90573,-0.007 6.17938,0.33225 10.52169,2.80798 3.9032,2.22538 5.14624,2.6086 5.92121,1.82544 1.39298,-1.40774 2.16891,-8.01457 2.2363,-19.04194 0.0665,-10.8734 0.81437,-13.41864 5.27065,-17.93661 4.07798,-4.13443 8.53728,-6.04717 14.14859,-6.06877 5.2717,-0.0204 8.58152,1.17059 12.45446,4.48119 4.75045,4.0607 5.79366,7.81799 6.58268,23.70868 0.38583,7.7703 0.86759,14.29621 1.0706,14.50202 0.203,0.20582 3.22786,-0.77112 6.72194,-2.17096 10.4549,-4.18859 18.15307,-3.08138 23.78413,3.42083 3.16776,3.6578 4.61619,7.04419 5.36084,12.53344 1.01597,7.48923 -0.82461,10.048 -25.63726,35.64075 l -21.96467,22.65523 -8.88352,-0.0896 -8.88353,-0.0896 -21.8311,-22.74692 z m 37.9547,13.12947 c 5.35444,-3.69677 36.96965,-35.87061 39.98572,-40.69228 5.49749,-8.78862 1.90302,-17.55394 -7.96843,-19.43147 -4.83061,-0.91875 -8.28982,1.27024 -18.04142,11.41663 l -8.97004,9.33319 -0.0643,-11.58939 c -0.0353,-6.37417 -0.31386,-18.38231 -0.61876,-26.68476 -0.49292,-13.42264 -0.72855,-15.29052 -2.1264,-16.8565 -6.86815,-7.69426 -18.76966,-4.23461 -21.14446,6.1465 -0.39898,1.744 -0.73395,13.29577 -0.74442,25.67053 l -0.019,22.49962 -8.57137,-8.18801 c -4.96163,-4.73972 -10.31796,-9.05537 -12.71867,-10.24757 -3.68955,-1.83224 -4.4618,-1.95433 -6.99694,-1.10607 -3.56788,1.19381 -7.27406,4.31107 -8.88838,7.47604 -2.87501,5.63658 0.60307,11.05342 20.05675,31.2368 13.28341,13.78166 22.30372,21.95088 25.94413,23.4963 2.97361,1.26232 6.69351,0.41503 10.88608,-2.47956 z"
     id="path4393-3"
     inkscape:connector-curvature="0"
     inkscape:export-xdpi="89.809998"
     inkscape:export-ydpi="89.809998" />
  <path
     style="opacity:1;fill:#6c6753;fill-opacity:1"
     d="m 684.41567,358.37324 c -19.04545,-17.93115 -31.83393,-32.94317 -31.83393,-37.36886 0,-2.06094 3.44786,-5.15483 5.74455,-5.15483 2.46712,0 7.62224,4.1181 16.18222,12.92695 8.47126,8.71756 11.94546,11.25817 13.39103,9.79258 0.54105,-0.54851 1.06001,-10.47157 1.43043,-27.35136 0.35848,-16.33552 0.93003,-27.45495 1.49098,-29.00633 1.50087,-4.15084 6.99751,-5.69312 10.3834,-2.91344 2.39246,1.9641 3.1076,8.87959 3.23654,31.29718 0.0986,17.12458 0.68903,26.46446 1.74066,27.53064 1.30476,1.32284 5.01631,-1.55964 15.74343,-12.22672 l 11.63677,-11.57165 3.29173,2.14546 c 1.81043,1.17999 3.85474,3.11179 4.5429,4.29287 1.24716,2.14049 1.22597,2.17577 -6.57641,10.9433 -9.94328,11.17329 -36.53697,37.49313 -37.88324,37.49313 -0.56057,0 -6.19506,-4.87301 -12.52106,-10.82892 z"
     id="path4395-5"
     inkscape:connector-curvature="0"
     inkscape:export-xdpi="89.809998"
     inkscape:export-ydpi="89.809998" />
  <path
     style="opacity:1;fill:#6c6753;fill-opacity:1"
     d="m 496.53922,172.54533 c -2.33963,-1.58882 -2.8408,-5.02204 -3.55609,-24.36115 -0.40734,-11.01311 -0.73753,-22.39575 -0.73375,-25.29476 0.008,-6.48059 -0.90428,-10.05371 -2.65583,-10.39693 -0.78762,-0.15433 -3.60806,2.00676 -6.91935,5.3018 -3.07437,3.05929 -5.58977,5.40693 -5.58977,5.21698 0,-0.18996 -3.0414,2.6242 -6.75866,6.25369 -3.71726,3.62947 -7.24549,6.59904 -7.84052,6.59904 -0.59503,0 -2.45386,-1.2062 -4.13076,-2.68043 -2.62828,-2.31064 -2.97141,-2.99435 -2.48734,-4.9559 0.56592,-2.29319 27.17574,-30.450905 38.13711,-40.355555 4.36552,-3.94465 5.69525,-4.73613 7.17603,-4.2713 2.30492,0.72354 36.22409,35.215385 39.43373,40.099515 3.44567,5.24331 3.7272,7.08664 1.43794,9.41488 -3.71834,3.78163 -6.43801,2.29179 -19.58867,-10.73069 -10.49562,-10.39331 -12.88331,-11.77614 -13.81498,-8.00091 -0.27635,1.11983 -0.84744,12.11582 -1.26909,24.43553 -0.91547,26.74843 -1.26993,30.11407 -3.42512,32.52223 -1.6257,1.81655 -5.56978,2.45694 -7.41488,1.20396 z"
     id="path4397-6"
     inkscape:connector-curvature="0"
     inkscape:export-xdpi="89.809998"
     inkscape:export-ydpi="89.809998" />
  <path
     style="opacity:1;fill:#6c6753;fill-opacity:1"
     d="m 690.08275,171.96712 c -3.92738,-4.24406 -1.98847,-7.89908 11.03622,-20.80446 8.13313,-8.05864 10.33275,-11.26924 9.10375,-13.28807 -0.3375,-0.55441 -6.7225,-0.85443 -18.44753,-0.86685 -19.76764,-0.0209 -35.51773,-0.99426 -38.01112,-2.34896 -3.49571,-1.8993 -3.35732,-9.46596 0.20923,-11.44035 1.12336,-0.62185 10.22285,-1.13794 26.98269,-1.53037 23.4499,-0.54906 29.63409,-1.16448 29.63409,-2.94902 0,-1.15637 -5.40787,-7.39214 -14.87672,-17.15434 l -9.08712,-9.368595 1.41593,-2.26416 c 2.05275,-3.28241 5.30941,-6.67658 6.4061,-6.67658 2.17044,0 43.01524,40.439265 45.38481,44.934205 0.60185,1.14167 -1.20635,3.53715 -9.77977,12.95603 -16.87096,18.53465 -32.88229,32.76506 -36.86554,32.76506 -0.70841,0 -2.10568,-0.8836 -3.10502,-1.96354 z"
     id="path4399-0"
     inkscape:connector-curvature="0"
     inkscape:export-xdpi="89.809998"
     inkscape:export-ydpi="89.809998" />
  <path
     style="opacity:1;fill:#6c6753;fill-opacity:1"
     d="m 506.54941,281.27837 c 4.00475,4.26828 2.10354,7.81218 -11.2488,20.968 -8.39212,8.2686 -10.5509,11.36583 -9.31618,13.36618 0.34462,0.55834 6.86434,0.86052 18.83683,0.873 20.18479,0.021 36.26728,1.00129 38.81328,2.36562 3.56947,1.91276 3.42816,9.53304 -0.21366,11.52143 -1.14703,0.62628 -10.43857,1.14602 -27.55211,1.54123 -23.94478,0.55294 -30.25947,1.17273 -30.25947,2.96992 0,1.16286 5.5171,7.43955 15.1442,17.22926 8.71495,8.86215 9.17702,9.49615 8.24415,11.31127 -1.32201,2.57227 -5.72535,7.17451 -6.86443,7.17451 -2.21252,0 -44.01111,-40.82101 -46.43414,-45.34815 -1.3581,-2.53744 32.54838,-37.14687 42.77718,-43.66406 4.39046,-2.79733 5.69112,-2.84698 8.07315,-0.30821 z"
     id="path4401-0"
     inkscape:connector-curvature="0"
     inkscape:export-xdpi="89.809998"
     inkscape:export-ydpi="89.809998" />
  <path
     style="opacity:1;fill:#783434;fill-opacity:1;filter:url(#filter4697)"
     d="m 483.58152,411.92885 c -46.92209,-8.92764 -76.99577,-52.0296 -69.77406,-100.00096 4.11705,-27.34811 21.48701,-51.48241 45.89769,-63.77145 13.36592,-6.72882 21.48901,-8.73496 37.69101,-9.30841 17.26049,-0.61093 27.99105,1.62263 42.30549,8.80589 29.98985,15.04949 48.21753,44.74066 48.2632,78.61627 0.0137,9.8405 -0.94653,15.96222 -3.94442,25.15762 -9.83073,30.15397 -31.41385,51.172 -60.48554,58.9019 -10.11607,2.68976 -30.03168,3.48688 -39.95337,1.59914 z m 26.95279,-25.46671 c 5.55517,-3.37109 21.39393,-18.29201 34.27347,-32.28736 18.33687,-19.92547 20.31847,-26.58869 11.75004,-39.51012 -6.36965,-9.6056 -40.79365,-42.9369 -49.07878,-47.52093 -10.42235,-5.76652 -25.20743,-0.29188 -30.4159,11.26241 -1.58266,3.51093 -1.90609,5.54718 -1.89182,11.91043 0.0101,4.40241 0.42662,8.40541 0.97727,9.38715 0.52803,0.94139 0.73073,1.94123 0.45048,2.22185 -0.28025,0.2806 -3.26317,0.51296 -6.62869,0.51631 -7.86034,0.008 -15.63483,1.28201 -20.23536,3.31646 -13.99722,6.18976 -17.90321,27.27644 -7.1195,38.43493 4.30896,4.45873 9.25542,5.98986 22.39994,6.93377 6.46058,0.46392 11.86336,0.93454 12.0062,1.04582 0.14285,0.11128 -0.34809,1.96379 -1.09094,4.11668 -0.74286,2.15291 -1.39571,6.64117 -1.45077,9.97393 -0.13287,8.04166 1.98594,12.5273 8.23904,17.44249 6.07827,4.77773 9.64039,5.98008 17.07184,5.76226 5.36034,-0.1569 6.63756,-0.51446 10.74348,-3.00608 z"
     id="path4403-6"
     inkscape:connector-curvature="0"
     inkscape:export-xdpi="89.809998"
     inkscape:export-ydpi="89.809998"
     transform="matrix(-1,0,0,-1,1000.7043,651.71381)" />
  <path
     style="opacity:1;fill:#6d6dbf;fill-opacity:1;filter:url(#filter4673)"
     d="m 680.5224,212.85653 c -45.93869,-8.86219 -75.40234,-51.67751 -68.33199,-99.29711 4.03199,-27.155635 21.04292,-51.120055 44.94909,-63.322625 13.08971,-6.68145 21.04493,-8.67346 36.91205,-9.24289 9.78833,-0.35127 13.66773,-0.16195 18.96581,0.9256 17.97332,3.68938 32.20622,11.42312 45.01731,24.46104 14.27033,14.52298 21.88472,31.20129 24.5189,53.705095 1.56724,13.38935 -0.88743,27.39923 -7.45508,42.54931 -10.74393,24.78369 -30.16436,41.81734 -55.44843,48.63371 -9.90698,2.67083 -29.41099,3.46234 -39.12766,1.58787 z m 26.39578,-25.28746 c 5.44035,-3.34738 20.95177,-18.16326 33.56514,-32.06013 17.95754,-19.78481 19.89485,-26.38876 11.51046,-39.23699 -3.56306,-5.46001 -28.81715,-31.656925 -38.45999,-39.895805 -11.4369,-9.77176 -15.80529,-11.25577 -24.88826,-8.45495 -10.09442,3.11271 -15.81466,10.63033 -16.56672,21.77225 -0.30598,4.53291 -0.0748,6.55164 1.46942,12.835375 0.24476,0.99582 -1.27939,1.29 -8.86247,1.7106 -16.39368,0.90928 -22.74483,4.11313 -27.58822,13.91694 -2.40254,4.86307 -2.75931,6.33848 -2.71601,11.23161 0.0861,9.72696 4.53355,17.05073 12.4554,20.51043 3.02678,1.32188 6.79712,1.95037 15.50317,2.58425 6.32702,0.46067 11.61816,0.92798 11.75805,1.03847 0.14,0.1105 -0.33388,1.94997 -1.05281,4.08772 -0.72239,2.14808 -1.33896,6.60649 -1.37833,9.96651 -0.0945,8.05956 1.92271,12.40496 8.01071,17.25694 5.95265,4.74412 9.44113,5.93798 16.71902,5.72173 5.24955,-0.15599 6.5004,-0.51087 10.52144,-2.98495 z"
     id="path4405-7"
     inkscape:connector-curvature="0"
     inkscape:export-xdpi="89.809998"
     inkscape:export-ydpi="89.809998" />
  <path
     style="opacity:1;fill:#4eb24e;fill-opacity:1;filter:url(#filter4837)"
     d="m 683.67788,411.64846 c -7.58429,-1.54228 -14.5187,-4.03704 -23.57437,-8.48121 -24.95862,-12.24878 -41.16927,-33.74481 -46.27335,-61.36058 -1.61239,-8.72387 -1.63005,-25.86013 -0.0351,-34.11164 5.70647,-29.52362 24.70657,-53.05084 51.9301,-64.30341 10.14534,-4.19346 19.50006,-5.93093 32.00106,-5.94361 17.87406,-0.0185 30.86717,3.42969 45.25348,12.00846 38.4753,22.94338 52.98908,73.54159 32.8411,114.49127 -12.7627,25.93942 -33.46076,41.73514 -62.07168,47.36992 -9.05365,1.78306 -22.2174,1.92787 -30.07118,0.3308 z m 20.33209,-26.9916 c 5.69794,-2.65413 12.47941,-8.56784 28.07312,-24.48079 16.29018,-16.62369 22.70702,-24.14575 25.05599,-29.37164 1.83725,-4.08737 1.90207,-11.01103 0.15192,-16.21868 -1.7953,-5.34184 -8.09472,-11.72844 -13.36363,-13.54859 -4.85911,-1.67858 -15.39841,-1.79933 -19.12866,-0.21916 l -2.68151,1.1359 -0.5763,-9.82592 c -0.77223,-13.1666 -2.53514,-18.8549 -7.4132,-23.92 -5.11845,-5.31468 -11.22732,-7.62052 -18.88841,-7.12954 -6.0406,0.3871 -12.1161,2.92722 -15.30977,6.40087 -4.1164,4.47729 -6.59962,14.19525 -6.61097,25.87177 -0.009,8.57914 -0.20103,8.94499 -3.85343,7.31584 -1.99576,-0.89021 -5.34507,-1.31999 -10.50464,-1.34795 -8.64718,-0.047 -10.85939,0.80354 -15.965,6.13735 -7.78269,8.13053 -9.82995,19.35784 -5.12928,28.12927 3.19856,5.9685 14.50015,18.4975 29.76127,32.99352 12.47466,11.84926 18.90202,16.91249 23.62515,18.61101 3.70789,1.33344 9.24697,1.1019 12.75738,-0.53326 z"
     id="path4407-9"
     inkscape:connector-curvature="0"
     inkscape:export-xdpi="89.809998"
     inkscape:export-ydpi="89.809998" />
  <path
     style="fill:#000000"
     d="m 4.2790179,496.36444 c 9.4096101,-33.36231 35.3237901,-59.91851 67.9102301,-69.59268 12.90899,-3.83239 39.924292,-3.83239 52.833282,0 32.49473,9.64693 58.15596,35.58334 67.70056,68.42654 1.71861,5.91382 2.89285,16.75156 2.89285,26.69993 0,28.14015 -9.09301,50.51288 -28.36294,69.78512 -12.41877,12.42024 -31.32955,22.86437 -48.00202,26.51079 -14.18028,3.10132 -39.795012,1.43594 -53.213002,-3.45972 -26.96502,-9.83845 -49.46765,-32.6188 -59.3920901,-60.12513 -4.9148701,-13.62192 -6.17895005,-44.72887 -2.36687,-58.24485 z m 11.9640801,52.62417 c 12.16149,36.78735 44.03714,59.96368 82.47128,59.96368 34.610832,0 63.377382,-17.96987 77.747132,-48.567 10.45035,-22.25163 11.99176,-40.63124 5.37961,-64.14508 -10.0617,-35.78095 -44.04425,-61.58999 -81.42195,-61.83829 -38.709232,-0.25714 -70.894372,22.40602 -83.638312,58.8939 -5.67464,16.24743 -5.8989,39.47573 -0.53776,55.69279 z"
     id="path4313-9-8"
     inkscape:connector-curvature="0"
     sodipodi:nodetypes="sssssssssssssssss"
     inkscape:export-xdpi="89.809998"
     inkscape:export-ydpi="89.809998" />
  <path
     style="opacity:1;fill:#800066;fill-opacity:1"
     d="m 74.006842,604.51712 c -27.67547,-8.84893 -47.53231,-28.94246 -55.93292,-56.59963 -4.87032,-16.03446 -3.99538,-42.72334 1.89821,-57.90247 11.89103,-30.62573 40.66725,-51.21457 74.39287,-53.22666 24.796308,-1.47937 44.446068,5.43752 62.485268,21.99536 28.57923,26.23235 35.66769,66.96891 17.98532,103.35958 -6.26423,12.89192 -24.865,31.41706 -37.4395,37.28727 -19.16654,8.94761 -44.864348,11.00968 -63.389248,5.08655 z"
     id="path4362"
     inkscape:connector-curvature="0"
     sodipodi:nodetypes="ssssssss"
     inkscape:export-xdpi="89.809998"
     inkscape:export-ydpi="89.809998" />
  <path
     sodipodi:type="star"
     style="opacity:1;fill:#000000;fill-opacity:1"
     id="path4413"
     sodipodi:sides="5"
     sodipodi:cx="100.93385"
     sodipodi:cy="516.84827"
     sodipodi:r1="50"
     sodipodi:r2="40.450851"
     sodipodi:arg1="0.92729522"
     sodipodi:arg2="1.5556137"
     inkscape:flatsided="true"
     inkscape:rounded="0.13"
     inkscape:randomized="0"
     d="m 130.93385,556.84827 c -6.11296,4.58472 -52.522405,5.28939 -58.771748,0.89237 -6.249343,-4.39702 -21.260829,-48.31726 -19.010169,-55.6195 2.25066,-7.30223 39.382493,-35.1511 47.022817,-35.26711 7.64033,-0.11601 45.60055,26.59269 48.07187,33.82322 2.47133,7.23054 -11.1998,51.58629 -17.31277,56.17102 z"
     inkscape:transform-center-x="0.26333267"
     inkscape:transform-center-y="-3.7371703"
     transform="matrix(1.3113069,0,0,1.2145903,-32.672121,-106.31069)"
     inkscape:export-xdpi="89.809998"
     inkscape:export-ydpi="89.809998" />
  <path
     sodipodi:type="star"
     style="opacity:1;fill:#e2dbe3;fill-opacity:1"
     id="path4411"
     sodipodi:sides="5"
     sodipodi:cx="100.74903"
     sodipodi:cy="521.5175"
     sodipodi:r1="50"
     sodipodi:r2="40.450851"
     sodipodi:arg1="0.92729522"
     sodipodi:arg2="1.5556137"
     inkscape:flatsided="true"
     inkscape:rounded="0.13"
     inkscape:randomized="0"
     d="m 130.74903,561.51752 c -6.11297,4.58472 -52.522407,5.28939 -58.77175,0.89237 -6.249343,-4.39702 -21.260829,-48.31726 -19.010169,-55.6195 2.25066,-7.30223 39.382493,-35.1511 47.02282,-35.26711 7.640329,-0.11601 45.600549,26.59269 48.071869,33.82322 2.47132,7.23054 -11.1998,51.58629 -17.31277,56.17102 z"
     inkscape:transform-center-x="0.20081535"
     inkscape:transform-center-y="-3.0768783"
     inkscape:export-xdpi="89.809998"
     inkscape:export-ydpi="89.809998" />
  <path
     style="fill:#000000"
     d="m 407.66424,499.32163 c 9.40961,-33.36231 35.32379,-59.91851 67.91023,-69.59268 12.90899,-3.83239 39.92429,-3.83239 52.83328,0 32.49473,9.64693 58.15596,35.58334 67.70056,68.42654 1.71861,5.91382 2.89285,16.75156 2.89285,26.69993 0,28.14015 -9.09301,50.51288 -28.36294,69.78512 -12.41877,12.42024 -31.32955,22.86437 -48.00202,26.51079 -14.18028,3.10132 -39.79501,1.43594 -53.213,-3.45972 -26.96502,-9.83845 -49.46765,-32.6188 -59.39209,-60.12513 -4.91487,-13.62192 -6.17895,-44.72887 -2.36687,-58.24485 z m 11.96408,52.62417 c 12.16149,36.78735 44.03714,59.96368 82.47128,59.96368 34.61083,0 63.37738,-17.96987 77.74713,-48.567 10.45035,-22.25163 11.99176,-40.63124 5.37961,-64.14508 -10.0617,-35.78095 -44.04425,-61.58999 -81.42195,-61.83829 -38.70923,-0.25714 -70.89437,22.40602 -83.63831,58.8939 -5.67464,16.24743 -5.8989,39.47573 -0.53776,55.69279 z"
     id="path4313-9-8-5"
     inkscape:connector-curvature="0"
     sodipodi:nodetypes="sssssssssssssssss"
     inkscape:export-xdpi="89.809998"
     inkscape:export-ydpi="89.809998" />
  <path
     style="opacity:1;fill:#57294e;fill-opacity:1"
     d="m 477.39206,607.47431 c -27.67547,-8.84893 -47.53231,-28.94246 -55.93292,-56.59963 -4.87032,-16.03446 -3.99538,-42.72334 1.89821,-57.90247 11.89103,-30.62573 40.66725,-51.21457 74.39287,-53.22666 24.79631,-1.47937 44.44607,5.43752 62.48527,21.99536 28.57923,26.23235 35.66769,66.96891 17.98532,103.35958 -6.26423,12.89192 -24.865,31.41706 -37.4395,37.28727 -19.16654,8.94761 -44.86435,11.00968 -63.38925,5.08655 z"
     id="path4362-0"
     inkscape:connector-curvature="0"
     sodipodi:nodetypes="ssssssss"
     inkscape:export-xdpi="89.809998"
     inkscape:export-ydpi="89.809998" />
  <path
     sodipodi:type="star"
     style="opacity:1;fill:#000000;fill-opacity:1"
     id="path4413-5"
     sodipodi:sides="5"
     sodipodi:cx="100.93385"
     sodipodi:cy="516.84827"
     sodipodi:r1="50"
     sodipodi:r2="40.450851"
     sodipodi:arg1="0.92729522"
     sodipodi:arg2="1.5556137"
     inkscape:flatsided="true"
     inkscape:rounded="0.13"
     inkscape:randomized="0"
     d="m 130.93385,556.84827 c -6.11296,4.58472 -52.522405,5.28939 -58.771748,0.89237 -6.249343,-4.39702 -21.260829,-48.31726 -19.010169,-55.6195 2.25066,-7.30223 39.382493,-35.1511 47.022817,-35.26711 7.64033,-0.11601 45.60055,26.59269 48.07187,33.82322 2.47133,7.23054 -11.1998,51.58629 -17.31277,56.17102 z"
     inkscape:transform-center-x="0.26333267"
     inkscape:transform-center-y="-3.7371703"
     transform="matrix(1.3113069,0,0,1.2145903,370.7131,-103.3535)"
     inkscape:export-xdpi="89.809998"
     inkscape:export-ydpi="89.809998" />
  <path
     sodipodi:type="star"
     style="opacity:1;fill:#e2dbe3;fill-opacity:1"
     id="path4411-5"
     sodipodi:sides="5"
     sodipodi:cx="504.13424"
     sodipodi:cy="524.47473"
     sodipodi:r1="50"
     sodipodi:r2="40.450851"
     sodipodi:arg1="0.92729522"
     sodipodi:arg2="1.5556137"
     inkscape:flatsided="true"
     inkscape:rounded="0.13"
     inkscape:randomized="0"
     d="m 534.13425,564.47473 c -6.11297,4.58473 -52.52241,5.2894 -58.77175,0.89238 -6.24935,-4.39702 -21.26083,-48.31727 -19.01017,-55.6195 2.25066,-7.30223 39.38249,-35.15111 47.02282,-35.26712 7.64032,-0.116 45.60055,26.59269 48.07187,33.82323 2.47132,7.23053 -11.19981,51.58629 -17.31277,56.17101 z"
     inkscape:transform-center-x="0.20081535"
     inkscape:transform-center-y="-3.0768783"
     inkscape:export-xdpi="89.809998"
     inkscape:export-ydpi="89.809998" />
</svg>
